<svg xmlns="http://www.w3.org/2000/svg" width="1701.992" height="872.781" viewBox="0 0 1701.992 872.781">
  <g id="Group_101" data-name="Group 101" transform="translate(1380.332 -7798)">
    <g id="Group_89" data-name="Group 89">
      <text id="Security_officer" data-name="Security officer" transform="translate(-1156.332 8109)" fill="#2a2a2a" font-size="24" font-family="Tajawal-Bold, Tajawal" font-weight="700"><tspan x="-83.616" y="0">Security Officer</tspan></text>
      <text id="_9000" data-name="+9000" transform="translate(-1156.332 8059)" fill="#2a2a2a" font-size="46" font-family="Tajawal-Bold, Tajawal" font-weight="700"><tspan x="-62.215" y="0">+9000</tspan></text>
      <g id="Group_69" data-name="Group 69" transform="translate(-1375.332 7769.841)">
        <g id="Group_68" data-name="Group 68" transform="translate(0 33.159)">
          <g id="Group_67" data-name="Group 67">
            <g id="Path_150" data-name="Path 150" transform="translate(0 -33.159)" fill="none" stroke-linecap="round" stroke-linejoin="round">
              <path d="M436.323,218.173,331.921,37.756a9.657,9.657,0,0,0-8.684-4.6H114.426a9.657,9.657,0,0,0-8.684,4.6L1.339,218.381a9.854,9.854,0,0,0,0,9.922l104.4,180.823a10.017,10.017,0,0,0,8.684,5.008h208.81a10.067,10.067,0,0,0,8.684-5.06l104.4-180.852A10.085,10.085,0,0,0,436.323,218.173ZM317.451,394.082H120.212L21.6,223.649,120.212,53.21H317.45l98.611,170.438Z" stroke="none"/>
              <path d="M 114.4259338378906 33.15899658203125 C 110.8424987792969 33.15899658203125 107.5335083007812 34.65234375 105.7418518066406 37.75616455078125 L 1.339385986328125 218.38134765625 C -0.4471435546875 221.4851684570312 -0.4471435546875 225.1993408203125 1.339385986328125 228.3031616210938 L 105.7418518066406 409.1258239746094 C 107.5335693359375 412.2305297851562 110.8425598144531 414.1333312988281 114.4259338378906 414.1333312988281 L 323.2359619140625 414.1333312988281 C 326.8193969726562 414.1333312988281 330.1283264160156 412.1775207519531 331.9200439453125 409.0736389160156 L 436.3224487304688 228.221923828125 C 438.1107482910156 225.1181030273438 438.1107482910156 221.2766418457031 436.3233337402344 218.1728057861328 L 331.9208679199219 37.75616455078125 C 330.129150390625 34.65234375 326.8202209472656 33.15899658203125 323.23681640625 33.15899658203125 L 114.4259338378906 33.15899658203125 M 317.4505615234375 394.0820007324219 L 120.2120971679688 394.0820007324219 L 21.60098266601562 223.6486968994141 L 120.2120971679688 53.2103271484375 L 317.4497375488281 53.2103271484375 L 416.0608520507812 223.6486968994141 L 317.4505615234375 394.0820007324219 M 114.4259338378906 28.15899658203125 L 323.23681640625 28.15899658203125 C 325.8382568359375 28.15899658203125 328.3549194335938 28.73873901367188 330.5146789550781 29.8355712890625 C 332.9261169433594 31.06015014648438 334.9087829589844 32.93307495117188 336.2485046386719 35.25186157226562 L 440.6509704589844 215.6685180664062 C 440.6527404785156 215.6715240478516 440.6544494628906 215.6745758056641 440.6562194824219 215.6776275634766 C 443.3277587890625 220.3166351318359 443.3271484375 226.0798034667969 440.6548156738281 230.7180480957031 L 336.2502746582031 411.5733947753906 C 333.5585632324219 416.2365112304688 328.5717468261719 419.1333312988281 323.2359619140625 419.1333312988281 L 114.4259338378906 419.1333312988281 C 111.7916870117188 419.1333312988281 109.1947326660156 418.4392700195312 106.9158020019531 417.1260986328125 C 104.6322631835938 415.8103942871094 102.7288513183594 413.9081115722656 101.4112854003906 411.625 L -2.99066162109375 230.80322265625 C -2.991790771484375 230.8012847900391 -2.992889404296875 230.7993927001953 -2.9940185546875 230.7974548339844 C -4.306671142578125 228.5169219970703 -5.00048828125 225.9389343261719 -5.00048828125 223.3422241210938 C -5.00048828125 220.7455749511719 -4.306671142578125 218.1675720214844 -2.9940185546875 215.8870391845703 C -2.9925537109375 215.8844604492188 -2.99102783203125 215.8818054199219 -2.989501953125 215.8792266845703 L 101.4129638671875 35.25405883789062 C 102.7512817382812 32.93557739257812 104.7349243164062 31.06103515625 107.1479797363281 29.8355712890625 C 109.3078002929688 28.73873901367188 111.824462890625 28.15899658203125 114.4259338378906 28.15899658203125 Z M 314.5660705566406 58.2103271484375 L 123.0957641601562 58.2103271484375 L 27.3775634765625 223.6486206054688 L 123.0957641601562 389.0820007324219 L 314.56689453125 389.0820007324219 L 410.2843017578125 223.6486358642578 L 314.5660705566406 58.2103271484375 Z" stroke="none" fill="#23702a"/>
            </g>
          </g>
        </g>
      </g>
      <g id="Group_77" data-name="Group 77" transform="translate(-1220.332 7865)">
        <g id="Group_76" data-name="Group 76" transform="translate(1 1)">
          <path id="Path_156" data-name="Path 156" d="M125.9,113.257l-36.942-8.4A8.115,8.115,0,0,1,82.6,96.9V85.744A25.158,25.158,0,0,0,90.42,70.888l.073-.524h2.311a2.039,2.039,0,0,0,1.991-1.6l4.08-18.361a2.017,2.017,0,0,0,.049-.443v-13.2a28.621,28.621,0,0,0,9.054-10.545l.93-1.861a2.039,2.039,0,0,0-.257-2.218l-.394-.473A48.641,48.641,0,0,0,82.521,5.509L64.739,1.061a2.03,2.03,0,0,0-.989,0L45.968,5.507A48.641,48.641,0,0,0,20.23,21.662l-.394.473a2.039,2.039,0,0,0-.257,2.218l.93,1.861a28.588,28.588,0,0,0,9.054,10.545v13.2a2.017,2.017,0,0,0,.049.443l4.08,18.361a2.035,2.035,0,0,0,1.989,1.6h2.311l.075.524a25.158,25.158,0,0,0,7.816,14.856V96.9a8.115,8.115,0,0,1-6.353,7.956l-36.944,8.4A2.039,2.039,0,0,0,1,115.247v12.241H5.08v-4.335L30.37,119.78a6.137,6.137,0,0,0,5.312-6.065V109.92l3.4-.773,9.2,13.377a2.045,2.045,0,0,0,1.418.867,2.275,2.275,0,0,0,.263.016,2.038,2.038,0,0,0,1.328-.492l4.058-3.478,5.412,5.412a2.035,2.035,0,0,0,1.442.6h4.08a2.035,2.035,0,0,0,1.442-.6l5.412-5.412,4.058,3.478a2.038,2.038,0,0,0,1.328.492,2.275,2.275,0,0,0,.263-.016,2.045,2.045,0,0,0,1.418-.867l9.2-13.377,3.4.773v3.795a6.141,6.141,0,0,0,5.312,6.067l25.289,3.372v4.333h4.08V115.247A2.039,2.039,0,0,0,125.9,113.257Zm-16.774.371v3.5l-4.08-.545V112.7ZM80.734,45.2a101.082,101.082,0,0,0-32.981,0L33.642,47.555V37.41l14.783-2.462a96.965,96.965,0,0,1,31.638,0L94.845,37.41V47.555Zm3.272,4.682A11.672,11.672,0,0,1,77.29,52H51.2a11.683,11.683,0,0,1-6.718-2.118l3.944-.657a96.965,96.965,0,0,1,31.638,0ZM24.157,24.39l-.33-.661A44.58,44.58,0,0,1,46.958,9.466L64.244,5.143,81.53,9.466A44.58,44.58,0,0,1,104.66,23.729l-.33.661a24.5,24.5,0,0,1-7.948,9.14L80.734,30.922a101.082,101.082,0,0,0-32.981,0L32.106,33.53A24.483,24.483,0,0,1,24.157,24.39ZM42.106,70.311l-.324-2.275a2.041,2.041,0,0,0-2.02-1.752H37.318L34.06,51.621l5.308-.885A15.74,15.74,0,0,0,51.2,56.083H77.288a15.737,15.737,0,0,0,11.829-5.347l5.308.885L91.169,66.284H88.725a2.041,2.041,0,0,0-2.02,1.752l-.324,2.275A21.107,21.107,0,0,1,74.926,86.2a24.283,24.283,0,0,1-21.364,0A21.11,21.11,0,0,1,42.106,70.311Zm9.631,19.542a27.966,27.966,0,0,0,25.012,0c.616-.308,1.191-.673,1.775-1.026v7.057L64.244,106.578,49.963,95.884V88.827C50.546,89.18,51.122,89.545,51.738,89.853ZM23.441,112.7v3.886l-4.08.545v-3.5ZM5.08,116.875l10.2-2.318v3.119l-10.2,1.361Zm26.522-3.16a2.046,2.046,0,0,1-1.771,2.022l-2.309.308v-4.27l4.08-.928Zm18.757,4.627-7.218-10.5a12.094,12.094,0,0,0,6.245-7.293l11.6,8.687Zm15.081,3.026H63.048l-4.592-4.592,5.788-4.962,5.788,4.962Zm12.69-3.026L67.5,109.234l11.6-8.687a12.088,12.088,0,0,0,6.245,7.293Zm18.757-4.627v-2.868l4.08.928v4.27l-2.309-.308A2.046,2.046,0,0,1,96.886,113.714Zm16.321,3.962v-3.119l10.2,2.318v2.16Z" transform="translate(-1 -1)" fill="#23702a"/>
          <path id="Path_157" data-name="Path 157" d="M36.27,25.232l.435.108a2.038,2.038,0,0,0,.991,0l.435-.108A12.224,12.224,0,0,0,47.4,13.356V7.04A2.041,2.041,0,0,0,45.361,5H29.04A2.041,2.041,0,0,0,27,7.04v6.316A12.224,12.224,0,0,0,36.27,25.232ZM31.08,9.08H43.321v4.276a8.147,8.147,0,0,1-6.12,7.9,8.149,8.149,0,0,1-6.12-7.9Z" transform="translate(26.043 3.16)" fill="#23702a"/>
        </g>
      </g>
      <text id="integrated_system" data-name="integrated system" transform="translate(-738.332 8109)" fill="#2a2a2a" font-size="24" font-family="Tajawal-Bold, Tajawal" font-weight="700"><tspan x="-97.8" y="0">Integrated System</tspan></text>
      <text id="_90" data-name="+90" transform="translate(-738.332 8059)" fill="#2a2a2a" font-size="46" font-family="Tajawal-Bold, Tajawal" font-weight="700"><tspan x="-36.317" y="0">+90</tspan></text>
      <g id="Group_68-2" data-name="Group 68" transform="translate(-957.332 7803)">
        <g id="Group_67-2" data-name="Group 67">
          <g id="Path_150-2" data-name="Path 150" transform="translate(0 -33.159)" fill="none" stroke-linecap="round" stroke-linejoin="round">
            <path d="M436.323,218.173,331.921,37.756a9.657,9.657,0,0,0-8.684-4.6H114.426a9.657,9.657,0,0,0-8.684,4.6L1.339,218.381a9.854,9.854,0,0,0,0,9.922l104.4,180.823a10.017,10.017,0,0,0,8.684,5.008h208.81a10.067,10.067,0,0,0,8.684-5.06l104.4-180.852A10.085,10.085,0,0,0,436.323,218.173ZM317.451,394.082H120.212L21.6,223.649,120.212,53.21H317.45l98.611,170.438Z" stroke="none"/>
            <path d="M 114.4259338378906 33.15899658203125 C 110.8424987792969 33.15899658203125 107.5335083007812 34.65234375 105.7418518066406 37.75616455078125 L 1.339385986328125 218.38134765625 C -0.4471435546875 221.4851684570312 -0.4471435546875 225.1993408203125 1.339385986328125 228.3031616210938 L 105.7418518066406 409.1258239746094 C 107.5335693359375 412.2305297851562 110.8425598144531 414.1333312988281 114.4259338378906 414.1333312988281 L 323.2359619140625 414.1333312988281 C 326.8193969726562 414.1333312988281 330.1283264160156 412.1775207519531 331.9200439453125 409.0736389160156 L 436.3224487304688 228.221923828125 C 438.1107482910156 225.1181030273438 438.1107482910156 221.2766418457031 436.3233337402344 218.1728057861328 L 331.9208679199219 37.75616455078125 C 330.129150390625 34.65234375 326.8202209472656 33.15899658203125 323.23681640625 33.15899658203125 L 114.4259338378906 33.15899658203125 M 317.4505615234375 394.0820007324219 L 120.2120971679688 394.0820007324219 L 21.60098266601562 223.6486968994141 L 120.2120971679688 53.2103271484375 L 317.4497375488281 53.2103271484375 L 416.0608520507812 223.6486968994141 L 317.4505615234375 394.0820007324219 M 114.4259338378906 28.15899658203125 L 323.23681640625 28.15899658203125 C 325.8382568359375 28.15899658203125 328.3549194335938 28.73873901367188 330.5146789550781 29.8355712890625 C 332.9261169433594 31.06015014648438 334.9087829589844 32.93307495117188 336.2485046386719 35.25186157226562 L 440.6509704589844 215.6685180664062 C 440.6527404785156 215.6715240478516 440.6544494628906 215.6745758056641 440.6562194824219 215.6776275634766 C 443.3277587890625 220.3166351318359 443.3271484375 226.0798034667969 440.6548156738281 230.7180480957031 L 336.2502746582031 411.5733947753906 C 333.5585632324219 416.2365112304688 328.5717468261719 419.1333312988281 323.2359619140625 419.1333312988281 L 114.4259338378906 419.1333312988281 C 111.7916870117188 419.1333312988281 109.1947326660156 418.4392700195312 106.9158020019531 417.1260986328125 C 104.6322631835938 415.8103942871094 102.7288513183594 413.9081115722656 101.4112854003906 411.625 L -2.99066162109375 230.80322265625 C -2.991790771484375 230.8012847900391 -2.992889404296875 230.7993927001953 -2.9940185546875 230.7974548339844 C -4.306671142578125 228.5169219970703 -5.00048828125 225.9389343261719 -5.00048828125 223.3422241210938 C -5.00048828125 220.7455749511719 -4.306671142578125 218.1675720214844 -2.9940185546875 215.8870391845703 C -2.9925537109375 215.8844604492188 -2.99102783203125 215.8818054199219 -2.989501953125 215.8792266845703 L 101.4129638671875 35.25405883789062 C 102.7512817382812 32.93557739257812 104.7349243164062 31.06103515625 107.1479797363281 29.8355712890625 C 109.3078002929688 28.73873901367188 111.824462890625 28.15899658203125 114.4259338378906 28.15899658203125 Z M 314.5660705566406 58.2103271484375 L 123.0957641601562 58.2103271484375 L 27.3775634765625 223.6486206054688 L 123.0957641601562 389.0820007324219 L 314.56689453125 389.0820007324219 L 410.2843017578125 223.6486358642578 L 314.5660705566406 58.2103271484375 Z" stroke="none" fill="#23702a"/>
          </g>
        </g>
      </g>
      <g id="Group_79" data-name="Group 79" transform="translate(-821.332 7858)">
        <g id="Group_78" data-name="Group 78" transform="translate(1 8)">
          <path id="Path_158" data-name="Path 158" d="M24.7,48.733a16.056,16.056,0,0,0,7.128,26.844l19.1,5.21a2.65,2.65,0,0,0,1.386,0l19.1-5.21A16.058,16.058,0,0,0,78.54,48.73l-.248-.248a10.087,10.087,0,0,1,0-14.264l4.179-4.179a2.632,2.632,0,0,0,0-3.726L71.931,15.773a2.632,2.632,0,0,0-3.726,0L65.73,18.247a7.154,7.154,0,0,1-9.769,0l-2.474-2.474a2.632,2.632,0,0,0-3.726,0l-2.474,2.474a7.154,7.154,0,0,1-9.769,0l-2.474-2.474a2.632,2.632,0,0,0-3.726,0L20.777,26.313a2.632,2.632,0,0,0,0,3.726l4.179,4.179a10.1,10.1,0,0,1-.005,14.267Zm3.726,3.726.248-.248a15.357,15.357,0,0,0,0-21.719l-2.316-2.316,6.815-6.815.611.611a12.177,12.177,0,0,0,17.223,0l.611-.611.611.611a12.177,12.177,0,0,0,17.223,0l.611-.611,6.814,6.815-2.316,2.316a15.357,15.357,0,0,0,0,21.719l.248.248a10.785,10.785,0,0,1-4.788,18.032l-18.4,5.023-18.4-5.02A10.787,10.787,0,0,1,28.43,52.459Z" transform="translate(30.068 3.446)" fill="#23702a"/>
          <path id="Path_159" data-name="Path 159" d="M31,39.789l-2.227,6.683a2.635,2.635,0,0,0,3.679,3.191l9.363-4.68,9.363,4.68a2.589,2.589,0,0,0,1.178.279,2.632,2.632,0,0,0,2.5-3.468l-2.227-6.683,4.556-6.833a2.636,2.636,0,0,0-2.192-4.1h-6.5L44,22.128a2.734,2.734,0,0,0-4.385,0l-4.488,6.733h-6.5a2.633,2.633,0,0,0-2.192,4.1Zm5.544-5.658a2.639,2.639,0,0,0,2.192-1.173l3.078-4.617,3.078,4.617a2.639,2.639,0,0,0,2.192,1.173h2.983l-2.54,3.808a2.633,2.633,0,0,0-.306,2.3l.622,1.871-4.851-2.427a2.646,2.646,0,0,0-2.356,0l-4.851,2.427.622-1.871a2.633,2.633,0,0,0-.306-2.3l-2.54-3.808Z" transform="translate(39.879 13.302)" fill="#23702a"/>
          <path id="Path_160" data-name="Path 160" d="M35,33h5.27v5.27H35Z" transform="translate(54.595 32.879)" fill="#23702a"/>
          <path id="Path_161" data-name="Path 161" d="M27,33H42.811v5.27H27Z" transform="translate(41.514 32.879)" fill="#23702a"/>
          <path id="Path_162" data-name="Path 162" d="M136.122,12H9.635A2.633,2.633,0,0,0,7,14.635V93.69a2.633,2.633,0,0,0,2.635,2.635H136.122a2.633,2.633,0,0,0,2.635-2.635V14.635A2.633,2.633,0,0,0,136.122,12Zm-2.635,79.055H12.27V17.27H133.487Z" transform="translate(8.811 -1.459)" fill="#23702a"/>
          <path id="Path_163" data-name="Path 163" d="M156.474,8H8.905A7.915,7.915,0,0,0,1,15.905v89.6a7.915,7.915,0,0,0,7.905,7.905H64.244v5.27H51.068a7.915,7.915,0,0,0-7.905,7.905v5.27a2.633,2.633,0,0,0,2.635,2.635h73.784a2.633,2.633,0,0,0,2.635-2.635v-5.27a7.915,7.915,0,0,0-7.905-7.905H101.136v-5.27h55.338a7.915,7.915,0,0,0,7.905-7.905v-89.6A7.915,7.915,0,0,0,156.474,8ZM116.947,126.582v2.635H48.433v-2.635a2.636,2.636,0,0,1,2.635-2.635h63.244A2.636,2.636,0,0,1,116.947,126.582Zm-21.081-7.905H69.514v-5.27H95.865ZM159.109,105.5a2.636,2.636,0,0,1-2.635,2.635H8.905A2.636,2.636,0,0,1,6.27,105.5v-89.6A2.636,2.636,0,0,1,8.905,13.27H156.474a2.636,2.636,0,0,1,2.635,2.635Z" transform="translate(-1 -8)" fill="#23702a"/>
        </g>
      </g>
      <text id="Camera_control" data-name="Camera control" transform="translate(97.668 8109)" fill="#2a2a2a" font-size="24" font-family="Tajawal-Bold, Tajawal" font-weight="700"><tspan x="-80.892" y="0">Camera control</tspan></text>
      <text id="_550" data-name="+550" transform="translate(97.668 8059)" fill="#2a2a2a" font-size="46" font-family="Tajawal-Bold, Tajawal" font-weight="700"><tspan x="-47.265" y="0">+550</tspan></text>
      <g id="Group_72" data-name="Group 72" transform="translate(-121 7803)">
        <g id="Path_150-3" data-name="Path 150" transform="translate(0 -33.159)" fill="none" stroke-linecap="round" stroke-linejoin="round">
          <path d="M436.323,218.173,331.921,37.756a9.657,9.657,0,0,0-8.684-4.6H114.426a9.657,9.657,0,0,0-8.684,4.6L1.339,218.381a9.854,9.854,0,0,0,0,9.922l104.4,180.823a10.017,10.017,0,0,0,8.684,5.008h208.81a10.067,10.067,0,0,0,8.684-5.06l104.4-180.852A10.085,10.085,0,0,0,436.323,218.173ZM317.451,394.082H120.212L21.6,223.649,120.212,53.21H317.45l98.611,170.438Z" stroke="none"/>
          <path d="M 114.4259338378906 33.15899658203125 C 110.8424987792969 33.15899658203125 107.5335083007812 34.65234375 105.7418518066406 37.75616455078125 L 1.339385986328125 218.38134765625 C -0.4471435546875 221.4851684570312 -0.4471435546875 225.1993408203125 1.339385986328125 228.3031616210938 L 105.7418518066406 409.1258239746094 C 107.5335693359375 412.2305297851562 110.8425598144531 414.1333312988281 114.4259338378906 414.1333312988281 L 323.2359619140625 414.1333312988281 C 326.8193969726562 414.1333312988281 330.1283264160156 412.1775207519531 331.9200439453125 409.0736389160156 L 436.3224487304688 228.221923828125 C 438.1107482910156 225.1181030273438 438.1107482910156 221.2766418457031 436.3233337402344 218.1728057861328 L 331.9208679199219 37.75616455078125 C 330.129150390625 34.65234375 326.8202209472656 33.15899658203125 323.23681640625 33.15899658203125 L 114.4259338378906 33.15899658203125 M 317.4505615234375 394.0820007324219 L 120.2120971679688 394.0820007324219 L 21.60098266601562 223.6486968994141 L 120.2120971679688 53.2103271484375 L 317.4497375488281 53.2103271484375 L 416.0608520507812 223.6486968994141 L 317.4505615234375 394.0820007324219 M 114.4259338378906 28.15899658203125 L 323.23681640625 28.15899658203125 C 325.8382568359375 28.15899658203125 328.3549194335938 28.73873901367188 330.5146789550781 29.8355712890625 C 332.9261169433594 31.06015014648438 334.9087829589844 32.93307495117188 336.2485046386719 35.25186157226562 L 440.6509704589844 215.6685180664062 C 440.6527404785156 215.6715240478516 440.6544494628906 215.6745758056641 440.6562194824219 215.6776275634766 C 443.3277587890625 220.3166351318359 443.3271484375 226.0798034667969 440.6548156738281 230.7180480957031 L 336.2502746582031 411.5733947753906 C 333.5585632324219 416.2365112304688 328.5717468261719 419.1333312988281 323.2359619140625 419.1333312988281 L 114.4259338378906 419.1333312988281 C 111.7916870117188 419.1333312988281 109.1947326660156 418.4392700195312 106.9158020019531 417.1260986328125 C 104.6322631835938 415.8103942871094 102.7288513183594 413.9081115722656 101.4112854003906 411.625 L -2.99066162109375 230.80322265625 C -2.991790771484375 230.8012847900391 -2.992889404296875 230.7993927001953 -2.9940185546875 230.7974548339844 C -4.306671142578125 228.5169219970703 -5.00048828125 225.9389343261719 -5.00048828125 223.3422241210938 C -5.00048828125 220.7455749511719 -4.306671142578125 218.1675720214844 -2.9940185546875 215.8870391845703 C -2.9925537109375 215.8844604492188 -2.99102783203125 215.8818054199219 -2.989501953125 215.8792266845703 L 101.4129638671875 35.25405883789062 C 102.7512817382812 32.93557739257812 104.7349243164062 31.06103515625 107.1479797363281 29.8355712890625 C 109.3078002929688 28.73873901367188 111.824462890625 28.15899658203125 114.4259338378906 28.15899658203125 Z M 314.5660705566406 58.2103271484375 L 123.0957641601562 58.2103271484375 L 27.3775634765625 223.6486206054688 L 123.0957641601562 389.0820007324219 L 314.56689453125 389.0820007324219 L 410.2843017578125 223.6486358642578 L 314.5660705566406 58.2103271484375 Z" stroke="none" fill="#23702a"/>
        </g>
      </g>
      <text id="technology_software" data-name="technology software" transform="translate(-320.332 8109)" fill="#2a2a2a" font-size="24" font-family="Tajawal-Bold, Tajawal" font-weight="700"><tspan x="-109.956" y="0">Technology Software</tspan></text>
      <text id="_55" data-name="+55" transform="translate(-320.332 8059)" fill="#2a2a2a" font-size="46" font-family="Tajawal-Bold, Tajawal" font-weight="700"><tspan x="-34.316" y="0">+55</tspan></text>
      <g id="Group_71" data-name="Group 71" transform="translate(-539.332 7803)">
        <g id="Group_67-3" data-name="Group 67">
          <g id="Path_150-4" data-name="Path 150" transform="translate(0 -33.159)" fill="none" stroke-linecap="round" stroke-linejoin="round">
            <path d="M436.323,218.173,331.921,37.756a9.657,9.657,0,0,0-8.684-4.6H114.426a9.657,9.657,0,0,0-8.684,4.6L1.339,218.381a9.854,9.854,0,0,0,0,9.922l104.4,180.823a10.017,10.017,0,0,0,8.684,5.008h208.81a10.067,10.067,0,0,0,8.684-5.06l104.4-180.852A10.085,10.085,0,0,0,436.323,218.173ZM317.451,394.082H120.212L21.6,223.649,120.212,53.21H317.45l98.611,170.438Z" stroke="none"/>
            <path d="M 114.4259338378906 33.15899658203125 C 110.8424987792969 33.15899658203125 107.5335083007812 34.65234375 105.7418518066406 37.75616455078125 L 1.339385986328125 218.38134765625 C -0.4471435546875 221.4851684570312 -0.4471435546875 225.1993408203125 1.339385986328125 228.3031616210938 L 105.7418518066406 409.1258239746094 C 107.5335693359375 412.2305297851562 110.8425598144531 414.1333312988281 114.4259338378906 414.1333312988281 L 323.2359619140625 414.1333312988281 C 326.8193969726562 414.1333312988281 330.1283264160156 412.1775207519531 331.9200439453125 409.0736389160156 L 436.3224487304688 228.221923828125 C 438.1107482910156 225.1181030273438 438.1107482910156 221.2766418457031 436.3233337402344 218.1728057861328 L 331.9208679199219 37.75616455078125 C 330.129150390625 34.65234375 326.8202209472656 33.15899658203125 323.23681640625 33.15899658203125 L 114.4259338378906 33.15899658203125 M 317.4505615234375 394.0820007324219 L 120.2120971679688 394.0820007324219 L 21.60098266601562 223.6486968994141 L 120.2120971679688 53.2103271484375 L 317.4497375488281 53.2103271484375 L 416.0608520507812 223.6486968994141 L 317.4505615234375 394.0820007324219 M 114.4259338378906 28.15899658203125 L 323.23681640625 28.15899658203125 C 325.8382568359375 28.15899658203125 328.3549194335938 28.73873901367188 330.5146789550781 29.8355712890625 C 332.9261169433594 31.06015014648438 334.9087829589844 32.93307495117188 336.2485046386719 35.25186157226562 L 440.6509704589844 215.6685180664062 C 440.6527404785156 215.6715240478516 440.6544494628906 215.6745758056641 440.6562194824219 215.6776275634766 C 443.3277587890625 220.3166351318359 443.3271484375 226.0798034667969 440.6548156738281 230.7180480957031 L 336.2502746582031 411.5733947753906 C 333.5585632324219 416.2365112304688 328.5717468261719 419.1333312988281 323.2359619140625 419.1333312988281 L 114.4259338378906 419.1333312988281 C 111.7916870117188 419.1333312988281 109.1947326660156 418.4392700195312 106.9158020019531 417.1260986328125 C 104.6322631835938 415.8103942871094 102.7288513183594 413.9081115722656 101.4112854003906 411.625 L -2.99066162109375 230.80322265625 C -2.991790771484375 230.8012847900391 -2.992889404296875 230.7993927001953 -2.9940185546875 230.7974548339844 C -4.306671142578125 228.5169219970703 -5.00048828125 225.9389343261719 -5.00048828125 223.3422241210938 C -5.00048828125 220.7455749511719 -4.306671142578125 218.1675720214844 -2.9940185546875 215.8870391845703 C -2.9925537109375 215.8844604492188 -2.99102783203125 215.8818054199219 -2.989501953125 215.8792266845703 L 101.4129638671875 35.25405883789062 C 102.7512817382812 32.93557739257812 104.7349243164062 31.06103515625 107.1479797363281 29.8355712890625 C 109.3078002929688 28.73873901367188 111.824462890625 28.15899658203125 114.4259338378906 28.15899658203125 Z M 314.5660705566406 58.2103271484375 L 123.0957641601562 58.2103271484375 L 27.3775634765625 223.6486206054688 L 123.0957641601562 389.0820007324219 L 314.56689453125 389.0820007324219 L 410.2843017578125 223.6486358642578 L 314.5660705566406 58.2103271484375 Z" stroke="none" fill="#23702a"/>
          </g>
        </g>
      </g>
      <g id="Group_83" data-name="Group 83" transform="translate(-384.332 7865)">
        <g id="Group_82" data-name="Group 82" transform="translate(1 1)">
          <path id="Path_165" data-name="Path 165" d="M47.6,17A30.6,30.6,0,1,0,78.2,47.6,30.636,30.636,0,0,0,47.6,17Zm0,57.123A26.522,26.522,0,1,1,74.123,47.6,26.552,26.552,0,0,1,47.6,74.123Z" transform="translate(15.642 15.642)" fill="#23702a"/>
          <path id="Path_166" data-name="Path 166" d="M49.481,33.241V31.2a10.2,10.2,0,0,0-20.4,0v2.04A4.084,4.084,0,0,0,25,37.321v20.4a4.084,4.084,0,0,0,4.08,4.08h20.4a4.084,4.084,0,0,0,4.08-4.08v-20.4A4.084,4.084,0,0,0,49.481,33.241ZM33.16,31.2a6.12,6.12,0,1,1,12.241,0v2.04H33.16ZM29.08,57.722v-20.4h20.4l0,20.4Z" transform="translate(23.963 19.802)" fill="#23702a"/>
          <path id="Path_167" data-name="Path 167" d="M35.12,30a6.106,6.106,0,0,0-2.04,11.865v4.456h4.08V41.865A6.106,6.106,0,0,0,35.12,30Zm0,8.16a2.04,2.04,0,1,1,2.04-2.04A2.042,2.042,0,0,1,35.12,38.16Z" transform="translate(28.123 29.163)" fill="#23702a"/>
          <path id="Path_168" data-name="Path 168" d="M49,17.241H65.321V5H49Zm4.08-8.16h8.16v4.08H53.08Z" transform="translate(48.926 3.16)" fill="#23702a"/>
          <path id="Path_169" data-name="Path 169" d="M5,65.4H21.321V45H5ZM9.08,49.08h8.16V61.321H9.08Z" transform="translate(3.16 44.765)" fill="#23702a"/>
          <path id="Path_170" data-name="Path 170" d="M7,57h8.16v4.08H7Z" transform="translate(5.241 57.247)" fill="#23702a"/>
          <path id="Path_171" data-name="Path 171" d="M121.367,82.6h-10.2V66.284H102.9c.037-.679.1-1.351.1-2.04s-.067-1.361-.1-2.04h8.265V39.762h11.221a5.1,5.1,0,0,0,4.08-8.16l-3.06-4.08V7.12A6.128,6.128,0,0,0,117.287,1h-20.4a6.128,6.128,0,0,0-6.12,6.12v20.4L87.7,31.6a5.061,5.061,0,0,0-.7,1.328,38.713,38.713,0,0,0-8.475-4.69V25.106a6.12,6.12,0,1,0-4.08,0v1.783a38.431,38.431,0,0,0-8.16-1.3V12.865a6.12,6.12,0,1,0-4.08,0v12.72a38.532,38.532,0,0,0-12.241,2.656V21.026a6.12,6.12,0,1,0-4.08,0v9.093a38.831,38.831,0,0,0-19.869,28H21.4V41.8h5.547a4.081,4.081,0,0,0,3.958-5.072l-.773-3.089H31.6a6.128,6.128,0,0,0,6.12-6.12V7.12A6.128,6.128,0,0,0,31.6,1H7.12A6.128,6.128,0,0,0,1,7.12v20.4a6.128,6.128,0,0,0,6.12,6.12H8.587l-.773,3.093a4.08,4.08,0,0,0,3.96,5.068h5.547V62.2h8.265c-.037.679-.1,1.351-.1,2.04s.067,1.361.1,2.04H17.321V82.6H7.12A6.128,6.128,0,0,0,1,88.725v32.642a6.128,6.128,0,0,0,6.12,6.12h20.4a6.128,6.128,0,0,0,6.12-6.12V88.725a5.949,5.949,0,0,0-.092-.9A39.018,39.018,0,0,0,45.883,98.369v9.093a6.12,6.12,0,1,0,4.08,0v-7.216A38.422,38.422,0,0,0,62.2,102.9v12.72a6.12,6.12,0,1,0,4.08,0V102.9a38.562,38.562,0,0,0,8.16-1.3v1.783a6.12,6.12,0,1,0,4.08,0v-3.136a38.9,38.9,0,0,0,16.413-12.42,5.95,5.95,0,0,0-.092.9v32.642a6.128,6.128,0,0,0,6.12,6.12h20.4a6.128,6.128,0,0,0,6.12-6.12V88.725A6.128,6.128,0,0,0,121.367,82.6ZM76.484,17.321a2.04,2.04,0,1,1-2.04,2.04A2.042,2.042,0,0,1,76.484,17.321Zm-28.562-4.08a2.04,2.04,0,1,1-2.04,2.04A2.042,2.042,0,0,1,47.923,13.241ZM7.12,5.08H31.6a2.042,2.042,0,0,1,2.04,2.04V21.4H5.08V7.12A2.042,2.042,0,0,1,7.12,5.08ZM5.08,27.522v-2.04H33.642v2.04a2.042,2.042,0,0,1-2.04,2.04H7.12A2.042,2.042,0,0,1,5.08,27.522Zm6.692,10.2,1.02-4.08H25.928l1.018,4.08Zm36.151,77.524a2.04,2.04,0,1,1,2.04-2.04A2.042,2.042,0,0,1,47.923,115.247Zm28.562-4.08a2.04,2.04,0,1,1,2.04-2.04A2.042,2.042,0,0,1,76.484,111.166Zm46.923-22.441v2.04H98.926v-2.04a2.042,2.042,0,0,1,2.04-2.04h20.4A2.042,2.042,0,0,1,123.407,88.725Zm-24.481,6.12h24.481v20.4H98.926Zm8.16-36.722h-4.613a38.578,38.578,0,0,0-8.211-18.361h12.824Zm-12.241-51a2.042,2.042,0,0,1,2.04-2.04h20.4a2.042,2.042,0,0,1,2.04,2.04V25.481H94.845ZM90.969,34.05l3.366-4.488h25.5l3.364,4.486a1.02,1.02,0,0,1-.814,1.634h-30.6a1.02,1.02,0,0,1-.816-1.632ZM64.244,5.08A2.04,2.04,0,1,1,62.2,7.12a2.042,2.042,0,0,1,2.04-2.04ZM29.562,121.367a2.042,2.042,0,0,1-2.04,2.04H7.12a2.042,2.042,0,0,1-2.04-2.04V88.725a2.042,2.042,0,0,1,2.04-2.04h20.4a2.042,2.042,0,0,1,2.04,2.04ZM27.522,82.6H21.4V70.364h4.613A38.449,38.449,0,0,0,30.645,83.49,6.066,6.066,0,0,0,27.522,82.6Zm36.722,40.8a2.04,2.04,0,1,1,2.04-2.04,2.042,2.042,0,0,1-2.04,2.04Zm0-24.481A34.682,34.682,0,1,1,98.926,64.244,34.721,34.721,0,0,1,64.244,98.926Zm38.23-28.562h4.613V82.6h-6.12a6.066,6.066,0,0,0-3.123.885,38.406,38.406,0,0,0,4.631-13.126Zm18.894,53.043h-20.4a2.042,2.042,0,0,1-2.04-2.04v-2.04h24.481v2.04A2.042,2.042,0,0,1,121.367,123.407Z" transform="translate(-1 -1)" fill="#23702a"/>
        </g>
      </g>
      <rect id="Rectangle_76" data-name="Rectangle 76" width="20" height="67" transform="translate(-939.794 7959.242) rotate(30)" fill="#fff"/>
      <rect id="Rectangle_79" data-name="Rectangle 79" width="20" height="67" transform="translate(-86.09 8017.266) rotate(150)" fill="#fff"/>
      <rect id="Rectangle_77" data-name="Rectangle 77" width="20" height="67" transform="translate(-521.41 7959.242) rotate(30)" fill="#fff"/>
      <rect id="Rectangle_80" data-name="Rectangle 80" width="20" height="67" transform="translate(-504.474 8017.266) rotate(150)" fill="#fff"/>
      <rect id="Rectangle_78" data-name="Rectangle 78" width="20" height="67" transform="translate(-103.41 7959.242) rotate(30)" fill="#fff"/>
      <rect id="Rectangle_81" data-name="Rectangle 81" width="20" height="67" transform="translate(-922.474 8017.266) rotate(150)" fill="#fff"/>
      <g id="Group_97" data-name="Group 97" transform="translate(18 7797.627)">
        <g id="Group_96" data-name="Group 96" transform="translate(0 68.372)">
          <g id="Group_95" data-name="Group 95" transform="translate(0)">
            <path id="Path_180" data-name="Path 180" d="M168.947,97.181a6.266,6.266,0,0,0-4.211-3.163c-.017-.005-.036-.009-.055-.013L56.907,68.409a1.258,1.258,0,0,0-.4-.032L15.515,71.115H15.48A10.707,10.707,0,0,0,6.7,79.072a118.236,118.236,0,0,0-2.58,18.345,8.043,8.043,0,0,0,1.966,5.851l.248,5.274a14.8,14.8,0,0,0,10.8,13.574l25.986,7.293v5.666c0,5.885,4.726,10.744,10.78,11.378v2.157a1.342,1.342,0,0,1-.932,1.283l-17.857,4.552-4.227-9.8a1.351,1.351,0,0,0-1.238-.814H1.347A1.348,1.348,0,0,0,0,145.181v52.554c0,.032.016.059.019.092a1.343,1.343,0,0,0,.055.271,1.248,1.248,0,0,0,.081.233,1.392,1.392,0,0,0,.139.206,1.413,1.413,0,0,0,.183.206c.024.021.036.051.062.07a1.254,1.254,0,0,0,.182.1,1.215,1.215,0,0,0,.151.078,1.326,1.326,0,0,0,.474.1H22.908a1.347,1.347,0,0,0,1.078-.539l11.927-15.9,50.905-24.113a1.345,1.345,0,0,0,.349-.248c.027-.026.046-.055.07-.082a1.357,1.357,0,0,0,.2-.3,1.162,1.162,0,0,0,.055-.121,1.333,1.333,0,0,0,.094-.468V141.888l12.956,3.636a5.363,5.363,0,0,0,2.877.836c.115,0,.232,0,.349-.011l40.539-2.556a1.348,1.348,0,0,0,1.136-.773l5.292-11.312h2.936a5.394,5.394,0,0,0,4.935-3.219l10.528-23.943a9.142,9.142,0,0,0-.19-7.363Zm-16.054-3.206H128.015c-4.933,0-8.065,1.756-10.251,4.137l-93.8-24.864,32.524-2.17ZM9.313,79.731a7.984,7.984,0,0,1,6.316-5.9l100.377,26.607a26.321,26.321,0,0,0-1.317,2.355l-11.52,22.362a4.054,4.054,0,0,1-4.687,2.1L10.758,103.206a5.4,5.4,0,0,1-3.952-5.588A115.639,115.639,0,0,1,9.313,79.731Zm77.515,59.144a1.335,1.335,0,0,0-.375-.105L23.4,121.075a13.512,13.512,0,0,1-2.931-8.376l-.088-4.061L96.876,129.6l1.19,11.9a5.372,5.372,0,0,0,.108.555Zm-1.934,17.087H71.419v-9.433H84.894ZM34.732,180.217H20.04l50.307-21.56h9.9ZM68.22,143.834a9.326,9.326,0,0,0,4.286-6.18l1.608.453v5.727Zm1.7-6.9c-.443,2.315-1.748,4.525-5.668,5.8a11.112,11.112,0,0,0,3.067-6.527Zm-18.71-5.251,8.085,2.269v.454a4.043,4.043,0,1,1-8.085,0ZM9.027,108.416l-.143-3.044a8.038,8.038,0,0,0,1.163.433l7.626,2.09.106,4.878a16.289,16.289,0,0,0,1.761,7.219l-1.676-.47A12.11,12.11,0,0,1,9.027,108.416Zm36.789,26.659v-4.91l2.7.756V134.4a6.726,6.726,0,0,0,13.446.293l2.7.759c-.216,4.654-4.349,8.382-9.412,8.382C50.047,143.834,45.816,139.9,45.816,135.075ZM53.675,152.5a4.061,4.061,0,0,0,2.921-3.884v-2.083H68.724v9.892l-53.9,23.1V162.4Zm-21.209,2.625L14.35,159.739l-4.49-13.21h18.9ZM7.014,146.529l5.114,15.046v19.542L2.695,193.693V146.529Zm15.22,49.858H4.043l10.107-13.475H32.341Zm62.66-52.553H76.809v-4.972l8.085,2.269Zm58.449-2.682L103.6,143.659a2.686,2.686,0,0,1-2.851-2.421l-1.117-11.175a6.726,6.726,0,0,0,5.941-3.689l11.52-22.362c2.195-4.405,4.893-7.34,10.92-7.34h21.651l1.362,28.057Zm23.3-37.621-10.5,23.87a2.7,2.7,0,0,1-2.467,1.61H152l1.612-3.444a1.345,1.345,0,0,0,.125-.636l-1.372-28.26h11.868a3.569,3.569,0,0,1,2.339,1.783A6.476,6.476,0,0,1,166.64,103.531Z" transform="translate(0 -68.372)" fill="#23702a"/>
            <path id="Path_181" data-name="Path 181" d="M434.094,191.764a14.159,14.159,0,0,0-8.774-9.108c-4.034-1.329-8.461-.574-12.467,2.121a23.646,23.646,0,0,0-8.648,26.3,14.159,14.159,0,0,0,8.774,9.108,12.722,12.722,0,0,0,4,.64,15.2,15.2,0,0,0,8.471-2.761,23.644,23.644,0,0,0,8.648-26.3Zm-2.635,13.7a19.876,19.876,0,0,1-7.519,10.356,10.85,10.85,0,0,1-17.2-5.657,20.958,20.958,0,0,1,7.615-23.153,12.545,12.545,0,0,1,6.978-2.3,10.047,10.047,0,0,1,3.144.5,11.526,11.526,0,0,1,7.079,7.455A19.871,19.871,0,0,1,431.46,205.469Z" transform="translate(-287.787 -149.519)" fill="#23702a"/>
            <path id="Path_182" data-name="Path 182" d="M437.031,200.039c-2.76-.91-5.817-.237-8.611,1.889a18.091,18.091,0,0,0-5.955,8.759c-2.527,7.682-.1,15.406,5.4,17.216a7.864,7.864,0,0,0,2.469.395,10.208,10.208,0,0,0,6.142-2.284,18.086,18.086,0,0,0,5.955-8.759C444.96,209.573,442.537,201.85,437.031,200.039Zm2.842,16.374a15.387,15.387,0,0,1-5.028,7.457c-2.067,1.572-4.247,2.093-6.137,1.474-4.094-1.347-5.746-7.543-3.683-13.813a15.387,15.387,0,0,1,5.028-7.457,7.575,7.575,0,0,1,4.521-1.729,5.165,5.165,0,0,1,1.614.255C440.283,203.945,441.935,210.143,439.873,216.413Z" transform="translate(-300.945 -162.106)" fill="#23702a"/>
            <path id="Path_183" data-name="Path 183" d="M451.212,244.155a3.352,3.352,0,0,0-2.819.375,4.181,4.181,0,0,0-1.74,2.258,3.74,3.74,0,0,0,2.106,4.824,3.16,3.16,0,0,0,.986.158,3.9,3.9,0,0,0,3.57-2.791,4.181,4.181,0,0,0-.059-2.849,3.353,3.353,0,0,0-2.044-1.975Zm-.456,3.98c-.227.687-.792,1.038-1.155.915s-.615-.733-.388-1.422a1.5,1.5,0,0,1,.6-.81.788.788,0,0,1,.4-.128.485.485,0,0,1,.155.024.686.686,0,0,1,.384.414A1.505,1.505,0,0,1,450.756,248.135Z" transform="translate(-318.775 -193.776)" fill="#23702a"/>
          </g>
        </g>
      </g>
    </g>
    <g id="Group_100" data-name="Group 100">
      <text id="Contract_years_" data-name="Contract (years)" transform="translate(-738.332 8590.807)" fill="#2a2a2a" font-size="24" font-family="Tajawal-Bold, Tajawal" font-weight="700"><tspan x="-84.18" y="0">Contract (Years)</tspan></text>
      <text id="_5" data-name="+5" transform="translate(-738.332 8540.807)" fill="#2a2a2a" font-size="46" font-family="Tajawal-Bold, Tajawal" font-weight="700"><tspan x="-22.885" y="0">+5</tspan></text>
      <g id="Group_68-3" data-name="Group 68" transform="translate(-957 8284.807)">
        <g id="Group_67-4" data-name="Group 67">
          <g id="Path_150-5" data-name="Path 150" transform="translate(0 -33.159)" fill="none" stroke-linecap="round" stroke-linejoin="round">
            <path d="M436.323,218.173,331.921,37.756a9.657,9.657,0,0,0-8.684-4.6H114.426a9.657,9.657,0,0,0-8.684,4.6L1.339,218.381a9.854,9.854,0,0,0,0,9.922l104.4,180.823a10.017,10.017,0,0,0,8.684,5.008h208.81a10.067,10.067,0,0,0,8.684-5.06l104.4-180.852A10.085,10.085,0,0,0,436.323,218.173ZM317.451,394.082H120.212L21.6,223.649,120.212,53.21H317.45l98.611,170.438Z" stroke="none"/>
            <path d="M 114.4259338378906 33.15899658203125 C 110.8424987792969 33.15899658203125 107.5335083007812 34.65234375 105.7418518066406 37.75616455078125 L 1.339385986328125 218.38134765625 C -0.4471435546875 221.4851684570312 -0.4471435546875 225.1993408203125 1.339385986328125 228.3031616210938 L 105.7418518066406 409.1258239746094 C 107.5335693359375 412.2305297851562 110.8425598144531 414.1333312988281 114.4259338378906 414.1333312988281 L 323.2359619140625 414.1333312988281 C 326.8193969726562 414.1333312988281 330.1283264160156 412.1775207519531 331.9200439453125 409.0736389160156 L 436.3224487304688 228.221923828125 C 438.1107482910156 225.1181030273438 438.1107482910156 221.2766418457031 436.3233337402344 218.1728057861328 L 331.9208679199219 37.75616455078125 C 330.129150390625 34.65234375 326.8202209472656 33.15899658203125 323.23681640625 33.15899658203125 L 114.4259338378906 33.15899658203125 M 317.4505615234375 394.0820007324219 L 120.2120971679688 394.0820007324219 L 21.60098266601562 223.6486968994141 L 120.2120971679688 53.2103271484375 L 317.4497375488281 53.2103271484375 L 416.0608520507812 223.6486968994141 L 317.4505615234375 394.0820007324219 M 114.4259338378906 28.15899658203125 L 323.23681640625 28.15899658203125 C 325.8382568359375 28.15899658203125 328.3549194335938 28.73873901367188 330.5146789550781 29.8355712890625 C 332.9261169433594 31.06015014648438 334.9087829589844 32.93307495117188 336.2485046386719 35.25186157226562 L 440.6509704589844 215.6685180664062 C 440.6527404785156 215.6715240478516 440.6544494628906 215.6745758056641 440.6562194824219 215.6776275634766 C 443.3277587890625 220.3166351318359 443.3271484375 226.0798034667969 440.6548156738281 230.7180480957031 L 336.2502746582031 411.5733947753906 C 333.5585632324219 416.2365112304688 328.5717468261719 419.1333312988281 323.2359619140625 419.1333312988281 L 114.4259338378906 419.1333312988281 C 111.7916870117188 419.1333312988281 109.1947326660156 418.4392700195312 106.9158020019531 417.1260986328125 C 104.6322631835938 415.8103942871094 102.7288513183594 413.9081115722656 101.4112854003906 411.625 L -2.99066162109375 230.80322265625 C -2.991790771484375 230.8012847900391 -2.992889404296875 230.7993927001953 -2.9940185546875 230.7974548339844 C -4.306671142578125 228.5169219970703 -5.00048828125 225.9389343261719 -5.00048828125 223.3422241210938 C -5.00048828125 220.7455749511719 -4.306671142578125 218.1675720214844 -2.9940185546875 215.8870391845703 C -2.9925537109375 215.8844604492188 -2.99102783203125 215.8818054199219 -2.989501953125 215.8792266845703 L 101.4129638671875 35.25405883789062 C 102.7512817382812 32.93557739257812 104.7349243164062 31.06103515625 107.1479797363281 29.8355712890625 C 109.3078002929688 28.73873901367188 111.824462890625 28.15899658203125 114.4259338378906 28.15899658203125 Z M 314.5660705566406 58.2103271484375 L 123.0957641601562 58.2103271484375 L 27.3775634765625 223.6486206054688 L 123.0957641601562 389.0820007324219 L 314.56689453125 389.0820007324219 L 410.2843017578125 223.6486358642578 L 314.5660705566406 58.2103271484375 Z" stroke="none" fill="#23702a"/>
          </g>
        </g>
      </g>
      <text id="Contract_Value" data-name="Contract Value" transform="translate(-320.332 8590.807)" fill="#2a2a2a" font-size="24" font-family="Tajawal-Bold, Tajawal" font-weight="700"><tspan x="-76.668" y="0">Contract Value</tspan></text>
      <text id="_200_000" data-name="+200,000" transform="translate(-320.332 8540.807)" fill="#2a2a2a" font-size="46" font-family="Tajawal-Bold, Tajawal" font-weight="700"><tspan x="-90.965" y="0">+200,000</tspan></text>
      <g id="Group_71-2" data-name="Group 71" transform="translate(-539.332 8284.807)">
        <g id="Group_67-5" data-name="Group 67">
          <g id="Path_150-6" data-name="Path 150" transform="translate(0 -33.159)" fill="none" stroke-linecap="round" stroke-linejoin="round">
            <path d="M436.323,218.173,331.921,37.756a9.657,9.657,0,0,0-8.684-4.6H114.426a9.657,9.657,0,0,0-8.684,4.6L1.339,218.381a9.854,9.854,0,0,0,0,9.922l104.4,180.823a10.017,10.017,0,0,0,8.684,5.008h208.81a10.067,10.067,0,0,0,8.684-5.06l104.4-180.852A10.085,10.085,0,0,0,436.323,218.173ZM317.451,394.082H120.212L21.6,223.649,120.212,53.21H317.45l98.611,170.438Z" stroke="none"/>
            <path d="M 114.4259338378906 33.15899658203125 C 110.8424987792969 33.15899658203125 107.5335083007812 34.65234375 105.7418518066406 37.75616455078125 L 1.339385986328125 218.38134765625 C -0.4471435546875 221.4851684570312 -0.4471435546875 225.1993408203125 1.339385986328125 228.3031616210938 L 105.7418518066406 409.1258239746094 C 107.5335693359375 412.2305297851562 110.8425598144531 414.1333312988281 114.4259338378906 414.1333312988281 L 323.2359619140625 414.1333312988281 C 326.8193969726562 414.1333312988281 330.1283264160156 412.1775207519531 331.9200439453125 409.0736389160156 L 436.3224487304688 228.221923828125 C 438.1107482910156 225.1181030273438 438.1107482910156 221.2766418457031 436.3233337402344 218.1728057861328 L 331.9208679199219 37.75616455078125 C 330.129150390625 34.65234375 326.8202209472656 33.15899658203125 323.23681640625 33.15899658203125 L 114.4259338378906 33.15899658203125 M 317.4505615234375 394.0820007324219 L 120.2120971679688 394.0820007324219 L 21.60098266601562 223.6486968994141 L 120.2120971679688 53.2103271484375 L 317.4497375488281 53.2103271484375 L 416.0608520507812 223.6486968994141 L 317.4505615234375 394.0820007324219 M 114.4259338378906 28.15899658203125 L 323.23681640625 28.15899658203125 C 325.8382568359375 28.15899658203125 328.3549194335938 28.73873901367188 330.5146789550781 29.8355712890625 C 332.9261169433594 31.06015014648438 334.9087829589844 32.93307495117188 336.2485046386719 35.25186157226562 L 440.6509704589844 215.6685180664062 C 440.6527404785156 215.6715240478516 440.6544494628906 215.6745758056641 440.6562194824219 215.6776275634766 C 443.3277587890625 220.3166351318359 443.3271484375 226.0798034667969 440.6548156738281 230.7180480957031 L 336.2502746582031 411.5733947753906 C 333.5585632324219 416.2365112304688 328.5717468261719 419.1333312988281 323.2359619140625 419.1333312988281 L 114.4259338378906 419.1333312988281 C 111.7916870117188 419.1333312988281 109.1947326660156 418.4392700195312 106.9158020019531 417.1260986328125 C 104.6322631835938 415.8103942871094 102.7288513183594 413.9081115722656 101.4112854003906 411.625 L -2.99066162109375 230.80322265625 C -2.991790771484375 230.8012847900391 -2.992889404296875 230.7993927001953 -2.9940185546875 230.7974548339844 C -4.306671142578125 228.5169219970703 -5.00048828125 225.9389343261719 -5.00048828125 223.3422241210938 C -5.00048828125 220.7455749511719 -4.306671142578125 218.1675720214844 -2.9940185546875 215.8870391845703 C -2.9925537109375 215.8844604492188 -2.99102783203125 215.8818054199219 -2.989501953125 215.8792266845703 L 101.4129638671875 35.25405883789062 C 102.7512817382812 32.93557739257812 104.7349243164062 31.06103515625 107.1479797363281 29.8355712890625 C 109.3078002929688 28.73873901367188 111.824462890625 28.15899658203125 114.4259338378906 28.15899658203125 Z M 314.5660705566406 58.2103271484375 L 123.0957641601562 58.2103271484375 L 27.3775634765625 223.6486206054688 L 123.0957641601562 389.0820007324219 L 314.56689453125 389.0820007324219 L 410.2843017578125 223.6486358642578 L 314.5660705566406 58.2103271484375 Z" stroke="none" fill="#23702a"/>
          </g>
        </g>
      </g>
      <rect id="Rectangle_77-2" data-name="Rectangle 77" width="20" height="67" transform="translate(-521.41 8441.049) rotate(30)" fill="#fff"/>
      <rect id="Rectangle_80-2" data-name="Rectangle 80" width="20" height="67" transform="translate(-504.474 8499.072) rotate(150)" fill="#fff"/>
      <g id="Group_98" data-name="Group 98" transform="translate(-804 8345.807)">
        <g id="Schedue" transform="translate(2 2)">
          <path id="Path_184" data-name="Path 184" d="M113.68,14.643h-8.429V10.429a8.429,8.429,0,1,0-16.857,0v4.214H71.536V10.429a8.429,8.429,0,0,0-16.857,0v4.214H37.822V10.429a8.429,8.429,0,1,0-16.857,0v4.214H12.536A10.548,10.548,0,0,0,2,25.179v88.5a10.548,10.548,0,0,0,10.536,10.536H75.751a2.107,2.107,0,1,0,0-4.214H12.536a6.321,6.321,0,0,1-6.321-6.321V44.143H120v29.5a2.107,2.107,0,0,0,4.214,0V25.179A10.548,10.548,0,0,0,113.68,14.643ZM92.608,10.429a4.214,4.214,0,0,1,8.429,0V23.072a4.214,4.214,0,0,1-8.429,0Zm-33.715,0a4.214,4.214,0,0,1,8.429,0V23.072a4.214,4.214,0,0,1-8.429,0Zm-33.715,0a4.214,4.214,0,1,1,8.429,0V23.072a4.214,4.214,0,1,1-8.429,0ZM6.214,39.929V25.179a6.321,6.321,0,0,1,6.321-6.321h8.429v4.214a8.429,8.429,0,0,0,16.857,0V18.857H54.679v4.214a8.429,8.429,0,0,0,16.857,0V18.857H88.394v4.214a8.429,8.429,0,1,0,16.857,0V18.857h8.429A6.321,6.321,0,0,1,120,25.179v14.75Z" transform="translate(-2 -2)" fill="#23702a"/>
          <path id="Path_185" data-name="Path 185" d="M88.731,46.548a2.107,2.107,0,0,0,0-4.214H80.3A2.107,2.107,0,0,0,78.2,44.441v8.429a2.107,2.107,0,0,0,4.214,0V50.115a23.126,23.126,0,1,1-10.877-8.429,2.109,2.109,0,0,0,1.475-3.951,27.431,27.431,0,1,0,12,8.812Z" transform="translate(35.592 35.632)" fill="#23702a"/>
          <path id="Path_186" data-name="Path 186" d="M58.857,53.031V42.107a2.107,2.107,0,0,0-4.214,0V53.031a6.322,6.322,0,0,0-3.827,3.827H44.107a2.107,2.107,0,0,0,0,4.214h6.709a6.307,6.307,0,1,0,8.041-8.041ZM56.75,61.072a2.107,2.107,0,1,1,2.107-2.107A2.107,2.107,0,0,1,56.75,61.072Z" transform="translate(42.287 40.072)" fill="#23702a"/>
          <path id="Path_187" data-name="Path 187" d="M33.643,40.75H25.214A4.214,4.214,0,0,1,21,36.536V30.214A4.214,4.214,0,0,1,25.214,26h8.429a4.214,4.214,0,0,1,4.214,4.214v6.321A4.214,4.214,0,0,1,33.643,40.75ZM25.214,30.214v6.321h8.429V30.214Z" transform="translate(19.036 24.572)" fill="#23702a"/>
          <path id="Path_188" data-name="Path 188" d="M45.643,40.75H37.214A4.214,4.214,0,0,1,33,36.536V30.214A4.214,4.214,0,0,1,37.214,26h8.429a4.214,4.214,0,0,1,4.214,4.214v6.321A4.214,4.214,0,0,1,45.643,40.75ZM37.214,30.214v6.321h8.429V30.214Z" transform="translate(32.322 24.572)" fill="#23702a"/>
          <path id="Path_189" data-name="Path 189" d="M21.643,40.75H13.214A4.214,4.214,0,0,1,9,36.536V30.214A4.214,4.214,0,0,1,13.214,26h8.429a4.214,4.214,0,0,1,4.214,4.214v6.321A4.214,4.214,0,0,1,21.643,40.75ZM13.214,30.214v6.321h8.429V30.214Z" transform="translate(5.75 24.572)" fill="#23702a"/>
          <path id="Path_190" data-name="Path 190" d="M57.643,40.75H49.214A4.214,4.214,0,0,1,45,36.536V30.214A4.214,4.214,0,0,1,49.214,26h8.429a4.214,4.214,0,0,1,4.214,4.214v6.321A4.214,4.214,0,0,1,57.643,40.75ZM49.214,30.214v6.321h8.429V30.214Z" transform="translate(45.608 24.572)" fill="#23702a"/>
          <path id="Path_191" data-name="Path 191" d="M33.643,51.75H25.214A4.214,4.214,0,0,1,21,47.536V41.214A4.214,4.214,0,0,1,25.214,37h8.429a4.214,4.214,0,0,1,4.214,4.214v6.321A4.214,4.214,0,0,1,33.643,51.75ZM25.214,41.214v6.321h8.429V41.214Z" transform="translate(19.036 36.751)" fill="#23702a"/>
          <path id="Path_192" data-name="Path 192" d="M37.214,51.75A4.214,4.214,0,0,1,33,47.536V41.214A4.214,4.214,0,0,1,37.214,37h6.321a2.107,2.107,0,1,1,0,4.214H37.214v6.321a2.107,2.107,0,1,1,0,4.214Z" transform="translate(32.322 36.751)" fill="#23702a"/>
          <path id="Path_193" data-name="Path 193" d="M21.643,51.75H13.214A4.214,4.214,0,0,1,9,47.536V41.214A4.214,4.214,0,0,1,13.214,37h8.429a4.214,4.214,0,0,1,4.214,4.214v6.321A4.214,4.214,0,0,1,21.643,51.75ZM13.214,41.214v6.321h8.429V41.214Z" transform="translate(5.75 36.751)" fill="#23702a"/>
          <path id="Path_194" data-name="Path 194" d="M33.643,62.75H25.214A4.214,4.214,0,0,1,21,58.536V52.214A4.214,4.214,0,0,1,25.214,48h8.429a4.214,4.214,0,0,1,4.214,4.214v6.321A4.214,4.214,0,0,1,33.643,62.75ZM25.214,52.214v6.321h8.429V52.214Z" transform="translate(19.036 48.93)" fill="#23702a"/>
          <path id="Path_195" data-name="Path 195" d="M21.643,62.75H13.214A4.214,4.214,0,0,1,9,58.536V52.214A4.214,4.214,0,0,1,13.214,48h8.429a4.214,4.214,0,0,1,4.214,4.214v6.321A4.214,4.214,0,0,1,21.643,62.75ZM13.214,52.214v6.321h8.429V52.214Z" transform="translate(5.75 48.93)" fill="#23702a"/>
        </g>
      </g>
      <g id="Group_99" data-name="Group 99" transform="translate(-366.467 8347.807)">
        <g id="Page-1" transform="translate(0 0)">
          <g id="_042---Paper" data-name="042---Paper">
            <path id="Shape" d="M41.865,47.595a2.108,2.108,0,0,0,4.216,0A9.813,9.813,0,0,0,37.649,38.3v-.192a2.108,2.108,0,0,0-4.216,0V38.3a9.339,9.339,0,0,0,0,18.589V67.3a5.428,5.428,0,0,1-4.216-4.946,2.108,2.108,0,1,0-4.216,0,9.813,9.813,0,0,0,8.432,9.295v.192a2.108,2.108,0,1,0,4.216,0v-.192a9.339,9.339,0,0,0,0-18.589V42.649A5.428,5.428,0,0,1,41.865,47.595Zm-12.649,0a5.428,5.428,0,0,1,4.216-4.946V52.54A5.428,5.428,0,0,1,29.216,47.595ZM41.865,62.352A5.428,5.428,0,0,1,37.649,67.3V57.406A5.428,5.428,0,0,1,41.865,62.352Z" transform="translate(27.703 39.892)" fill="#23702a"/>
            <path id="Shape-2" data-name="Shape" d="M2.108,32.676A2.108,2.108,0,0,0,0,34.784v79.055a12.661,12.661,0,0,0,12.649,12.649h67.46a12.661,12.661,0,0,0,12.649-12.649V31.622a2.108,2.108,0,0,0-.618-1.49L62.626.618A2.108,2.108,0,0,0,61.136,0H12.649A12.661,12.661,0,0,0,0,12.649V25.3a2.108,2.108,0,0,0,4.216,0V12.649a8.432,8.432,0,0,1,8.432-8.432H59.027V21.081A12.661,12.661,0,0,0,71.676,33.73H88.541v80.109a8.432,8.432,0,0,1-8.432,8.432H12.649a8.432,8.432,0,0,1-8.432-8.432V34.784A2.108,2.108,0,0,0,2.108,32.676ZM63.244,21.081V7.2L85.56,29.514H71.676A8.432,8.432,0,0,1,63.244,21.081Z" transform="translate(0 0)" fill="#23702a"/>
            <path id="Shape-3" data-name="Shape" d="M7,58.541a2.108,2.108,0,0,0,2.108,2.108h8.432a2.108,2.108,0,0,0,0-4.216H11.216V50.108a2.108,2.108,0,0,0-4.216,0Z" transform="translate(7.757 53.19)" fill="#23702a"/>
            <path id="Shape-4" data-name="Shape" d="M9.108,24.216H66.027a2.108,2.108,0,1,0,0-4.216H9.108a2.108,2.108,0,0,0,0,4.216Z" transform="translate(7.757 22.162)" fill="#23702a"/>
            <path id="Shape-5" data-name="Shape" d="M9.108,30.216H66.027a2.108,2.108,0,1,0,0-4.216H9.108a2.108,2.108,0,0,0,0,4.216Z" transform="translate(7.757 28.811)" fill="#23702a"/>
            <path id="Shape-6" data-name="Shape" d="M9.108,36.216H66.027a2.108,2.108,0,1,0,0-4.216H9.108a2.108,2.108,0,0,0,0,4.216Z" transform="translate(7.757 35.46)" fill="#23702a"/>
            <path id="Shape-7" data-name="Shape" d="M9.108,42.216H38.622a2.108,2.108,0,0,0,0-4.216H9.108a2.108,2.108,0,0,0,0,4.216Z" transform="translate(7.757 42.109)" fill="#23702a"/>
          </g>
        </g>
      </g>
    </g>
  </g>
</svg>
