<svg xmlns="http://www.w3.org/2000/svg" width="779.996" height="240.32" viewBox="0 0 779.996 240.32">
  <g id="Group_90" data-name="Group 90" transform="translate(-657 -8994.513)">
    <text id="ضابط_أمن" data-name="ضابط أمن" transform="translate(793.124 9183.579)" fill="#2a2a2a" font-size="16" font-family="Tajawal-Medium, Tajawal" font-weight="500"><tspan x="-34.56" y="0">ضابط أمن</tspan></text>
    <text id="_9000" data-name="+9000" transform="translate(793.915 9153.655)" fill="#2a2a2a" font-size="27" font-family="Tajawal-Bold, Tajawal" font-weight="700"><tspan x="-36.518" y="0">+9000</tspan></text>
    <g id="Group_69" data-name="Group 69" transform="translate(662 8999.513)">
      <g id="Group_68" data-name="Group 68" transform="translate(0 0)">
        <g id="Group_67" data-name="Group 67">
          <g id="Path_150" data-name="Path 150" transform="translate(0 -33.159)" fill="none" stroke-linecap="round" stroke-linejoin="round">
            <path d="M263.781,145.01,200.664,35.938a5.838,5.838,0,0,0-5.25-2.779H69.177a5.838,5.838,0,0,0-5.25,2.779L.81,145.136a5.957,5.957,0,0,0,0,6L63.927,260.452a6.056,6.056,0,0,0,5.25,3.027H195.414a6.086,6.086,0,0,0,5.25-3.059l63.117-109.335A6.1,6.1,0,0,0,263.781,145.01ZM191.916,251.357H72.675L13.059,148.321,72.675,45.281H191.916l59.616,103.04Z" stroke="none"/>
            <path d="M 69.17652893066406 33.15899658203125 C 67.01017761230469 33.15899658203125 65.00971984863281 34.06182861328125 63.92655944824219 35.93826293945312 L 0.80950927734375 145.1362915039062 C -0.2705078125 147.0127105712891 -0.2705078125 149.2581329345703 0.80950927734375 151.1345672607422 L 63.92655944824219 260.4519348144531 C 65.00971984863281 262.328857421875 67.01017761230469 263.4792785644531 69.17652893066406 263.4792785644531 L 195.4136810302734 263.4792785644531 C 197.5800170898438 263.4792785644531 199.5804748535156 262.296875 200.6636352539062 260.42041015625 L 263.7806701660156 151.08544921875 C 264.8617858886719 149.2090148925781 264.8617858886719 146.8866424560547 263.7811889648438 145.0101776123047 L 200.6641845703125 35.93826293945312 C 199.5809936523438 34.06182861328125 197.5805206298828 33.15899658203125 195.4141845703125 33.15899658203125 L 69.17652893066406 33.15899658203125 M 191.9161071777344 251.357177734375 L 72.67460632324219 251.357177734375 L 13.05879211425781 148.3206787109375 L 72.67460632324219 45.28114318847656 L 191.9156036376953 45.28114318847656 L 251.5314483642578 148.3206787109375 L 191.9161071777344 251.357177734375 M 69.17652893066406 28.15899658203125 L 195.4141845703125 28.15899658203125 C 197.2965240478516 28.15899658203125 199.1275634765625 28.58358764648438 200.7093658447266 29.38690185546875 C 202.5091400146484 30.3009033203125 203.9898376464844 31.7001953125 204.9918060302734 33.4339599609375 L 204.9918365478516 33.4339599609375 L 268.1088256835938 142.5058746337891 C 268.1105651855469 142.5089111328125 268.1123352050781 142.5119476318359 268.1140747070312 142.5149383544922 C 270.0797424316406 145.9282989501953 270.079345703125 150.1687927246094 268.113037109375 153.5815582275391 L 204.9939117431641 262.920166015625 C 203.0146026611328 266.3490905761719 199.3436279296875 268.4792785644531 195.4136810302734 268.4792785644531 L 69.17652893066406 268.4792785644531 C 67.23799133300781 268.4792785644531 65.32659912109375 267.9683837890625 63.64906311035156 267.001708984375 C 61.96763610839844 266.0328674316406 60.56610107421875 264.6321716308594 59.595947265625 262.9511108398438 L -3.520538330078125 153.6346435546875 C -3.52166748046875 153.6327209472656 -3.522796630859375 153.6307525634766 -3.523895263671875 153.6288299560547 C -4.489898681640625 151.9505157470703 -5.000518798828125 150.0509490966797 -5.000518798828125 148.1354064941406 C -5.000518798828125 146.2199096679688 -4.489898681640625 144.3203277587891 -3.523895263671875 142.6420288085938 C -3.52239990234375 142.639404296875 -3.520904541015625 142.6367950439453 -3.51934814453125 142.6341705322266 L 59.59767150878906 33.43612670898438 C 60.59825134277344 31.7027587890625 62.07998657226562 30.30172729492188 63.88133239746094 29.38690185546875 C 65.463134765625 28.58358764648438 67.29417419433594 28.15899658203125 69.17652893066406 28.15899658203125 Z M 189.0318908691406 50.28114318847656 L 75.55830383300781 50.28114318847656 L 18.83538818359375 148.3206329345703 L 75.55827331542969 246.357177734375 L 189.0324401855469 246.357177734375 L 245.7548675537109 148.3206634521484 L 189.0318908691406 50.28114318847656 Z" stroke="none" fill="#23702a"/>
          </g>
        </g>
      </g>
    </g>
    <g id="Group_77" data-name="Group 77" transform="translate(756.311 9037.6)">
      <g id="Group_76" data-name="Group 76" transform="translate(0 0)">
        <path id="Path_156" data-name="Path 156" d="M76.509,68.866,54.175,63.789a4.906,4.906,0,0,1-3.841-4.81V52.233a15.21,15.21,0,0,0,4.725-8.981l.044-.317h1.4a1.233,1.233,0,0,0,1.2-.966l2.467-11.1a1.219,1.219,0,0,0,.03-.268V22.62a17.3,17.3,0,0,0,5.474-6.375l.562-1.125a1.233,1.233,0,0,0-.155-1.341l-.238-.286a29.406,29.406,0,0,0-15.56-9.767L39.534,1.037a1.227,1.227,0,0,0-.6,0L28.186,3.724a29.406,29.406,0,0,0-15.56,9.767l-.238.286a1.233,1.233,0,0,0-.155,1.341l.562,1.125a17.283,17.283,0,0,0,5.474,6.375V30.6a1.219,1.219,0,0,0,.03.268l2.467,11.1a1.23,1.23,0,0,0,1.2.966h1.4l.046.317a15.21,15.21,0,0,0,4.725,8.981v6.747a4.906,4.906,0,0,1-3.841,4.81L1.96,68.866a1.233,1.233,0,0,0-.96,1.2v7.4H3.467V74.848l15.289-2.039a3.71,3.71,0,0,0,3.212-3.667V66.848l2.057-.467,5.56,8.087a1.236,1.236,0,0,0,.857.524A1.376,1.376,0,0,0,30.6,75a1.232,1.232,0,0,0,.8-.3l2.453-2.1,3.272,3.272a1.23,1.23,0,0,0,.872.361h2.467a1.23,1.23,0,0,0,.872-.361L44.612,72.6l2.453,2.1a1.232,1.232,0,0,0,.8.3,1.376,1.376,0,0,0,.159-.01,1.236,1.236,0,0,0,.857-.524l5.56-8.087,2.057.467v2.294a3.712,3.712,0,0,0,3.212,3.668L75,74.849v2.62h2.467v-7.4A1.233,1.233,0,0,0,76.509,68.866Zm-10.141.224v2.118L63.9,70.879v-2.35ZM49.2,27.723a61.11,61.11,0,0,0-19.939,0l-8.531,1.422V23.012l8.937-1.489a58.621,58.621,0,0,1,19.127,0l8.937,1.489v6.134Zm1.978,2.831a7.056,7.056,0,0,1-4.06,1.28H31.347a7.063,7.063,0,0,1-4.061-1.28l2.384-.4a58.62,58.62,0,0,1,19.127,0ZM15,15.141l-.2-.4A26.951,26.951,0,0,1,28.784,6.118L39.234,3.5l10.45,2.613a26.951,26.951,0,0,1,13.984,8.622l-.2.4a14.812,14.812,0,0,1-4.805,5.525L49.2,19.09a61.11,61.11,0,0,0-19.939,0l-9.46,1.576A14.8,14.8,0,0,1,15,15.141ZM25.851,42.9l-.2-1.375a1.234,1.234,0,0,0-1.221-1.059H22.956L20.987,31.6l3.209-.535A9.516,9.516,0,0,0,31.347,34.3H47.12a9.514,9.514,0,0,0,7.151-3.233l3.209.535-1.968,8.864H54.035a1.234,1.234,0,0,0-1.221,1.059l-.2,1.375a12.76,12.76,0,0,1-6.925,9.608,14.681,14.681,0,0,1-12.916,0A12.762,12.762,0,0,1,25.851,42.9Zm5.823,11.814a16.907,16.907,0,0,0,15.121,0c.372-.186.72-.407,1.073-.62v4.266l-8.634,6.465L30.6,58.363V54.1C30.953,54.31,31.3,54.531,31.674,54.717ZM14.567,68.53v2.35l-2.467.329V69.092Zm-11.1,2.522,6.167-1.4v1.886l-6.167.823ZM19.5,69.142a1.237,1.237,0,0,1-1.071,1.222l-1.4.186V67.969l2.467-.561Zm11.34,2.8-4.364-6.347a7.311,7.311,0,0,0,3.775-4.409l7.012,5.252Zm9.117,1.829H38.511l-2.776-2.776,3.5-3,3.5,3Zm7.672-1.829-6.423-5.506,7.012-5.252a7.308,7.308,0,0,0,3.775,4.409Zm11.34-2.8V67.408l2.467.561v2.581l-1.4-.186A1.237,1.237,0,0,1,58.968,69.142Zm9.867,2.4V69.652L75,71.053v1.306Z" transform="translate(-1 -1)" fill="#23702a"/>
        <path id="Path_157" data-name="Path 157" d="M32.6,17.231l.263.065a1.232,1.232,0,0,0,.6,0l.263-.065a7.39,7.39,0,0,0,5.6-7.179V6.233A1.234,1.234,0,0,0,38.1,5H28.233A1.234,1.234,0,0,0,27,6.233v3.818A7.39,7.39,0,0,0,32.6,17.231ZM29.467,7.467h7.4v2.585a4.925,4.925,0,0,1-3.7,4.777,4.927,4.927,0,0,1-3.7-4.777Z" transform="translate(5.067 -0.067)" fill="#23702a"/>
      </g>
    </g>
    <text id="نظام_متكامل" data-name="نظام متكامل" transform="translate(1044.155 9183.579)" fill="#2a2a2a" font-size="16" font-family="Tajawal-Medium, Tajawal" font-weight="500"><tspan x="-43.472" y="0">نظام متكامل</tspan></text>
    <text id="_90" data-name="+90" transform="translate(1046.338 9153.655)" fill="#2a2a2a" font-size="27" font-family="Tajawal-Bold, Tajawal" font-weight="700"><tspan x="-21.316" y="0">+90</tspan></text>
    <g id="Group_68-2" data-name="Group 68" transform="translate(914.704 8999.513)">
      <g id="Group_67-2" data-name="Group 67">
        <g id="Path_150-2" data-name="Path 150" transform="translate(0 -33.159)" fill="none" stroke-linecap="round" stroke-linejoin="round">
          <path d="M263.781,145.01,200.664,35.938a5.838,5.838,0,0,0-5.25-2.779H69.177a5.838,5.838,0,0,0-5.25,2.779L.81,145.136a5.957,5.957,0,0,0,0,6L63.927,260.452a6.056,6.056,0,0,0,5.25,3.027H195.414a6.086,6.086,0,0,0,5.25-3.059l63.117-109.335A6.1,6.1,0,0,0,263.781,145.01ZM191.916,251.357H72.675L13.059,148.321,72.675,45.281H191.916l59.616,103.04Z" stroke="none"/>
          <path d="M 69.17652893066406 33.15899658203125 C 67.01017761230469 33.15899658203125 65.00971984863281 34.06182861328125 63.92655944824219 35.93826293945312 L 0.80950927734375 145.1362915039062 C -0.2705078125 147.0127105712891 -0.2705078125 149.2581329345703 0.80950927734375 151.1345672607422 L 63.92655944824219 260.4519348144531 C 65.00971984863281 262.328857421875 67.01017761230469 263.4792785644531 69.17652893066406 263.4792785644531 L 195.4136810302734 263.4792785644531 C 197.5800170898438 263.4792785644531 199.5804748535156 262.296875 200.6636352539062 260.42041015625 L 263.7806701660156 151.08544921875 C 264.8617858886719 149.2090148925781 264.8617858886719 146.8866424560547 263.7811889648438 145.0101776123047 L 200.6641845703125 35.93826293945312 C 199.5809936523438 34.06182861328125 197.5805206298828 33.15899658203125 195.4141845703125 33.15899658203125 L 69.17652893066406 33.15899658203125 M 191.9161071777344 251.357177734375 L 72.67460632324219 251.357177734375 L 13.05879211425781 148.3206787109375 L 72.67460632324219 45.28114318847656 L 191.9156036376953 45.28114318847656 L 251.5314483642578 148.3206787109375 L 191.9161071777344 251.357177734375 M 69.17652893066406 28.15899658203125 L 195.4141845703125 28.15899658203125 C 197.2965240478516 28.15899658203125 199.1275634765625 28.58358764648438 200.7093658447266 29.38690185546875 C 202.5091400146484 30.3009033203125 203.9898376464844 31.7001953125 204.9918060302734 33.4339599609375 L 204.9918365478516 33.4339599609375 L 268.1088256835938 142.5058746337891 C 268.1105651855469 142.5089111328125 268.1123352050781 142.5119476318359 268.1140747070312 142.5149383544922 C 270.0797424316406 145.9282989501953 270.079345703125 150.1687927246094 268.113037109375 153.5815582275391 L 204.9939117431641 262.920166015625 C 203.0146026611328 266.3490905761719 199.3436279296875 268.4792785644531 195.4136810302734 268.4792785644531 L 69.17652893066406 268.4792785644531 C 67.23799133300781 268.4792785644531 65.32659912109375 267.9683837890625 63.64906311035156 267.001708984375 C 61.96763610839844 266.0328674316406 60.56610107421875 264.6321716308594 59.595947265625 262.9511108398438 L -3.520538330078125 153.6346435546875 C -3.52166748046875 153.6327209472656 -3.522796630859375 153.6307525634766 -3.523895263671875 153.6288299560547 C -4.489898681640625 151.9505157470703 -5.000518798828125 150.0509490966797 -5.000518798828125 148.1354064941406 C -5.000518798828125 146.2199096679688 -4.489898681640625 144.3203277587891 -3.523895263671875 142.6420288085938 C -3.52239990234375 142.639404296875 -3.520904541015625 142.6367950439453 -3.51934814453125 142.6341705322266 L 59.59767150878906 33.43612670898438 C 60.59825134277344 31.7027587890625 62.07998657226562 30.30172729492188 63.88133239746094 29.38690185546875 C 65.463134765625 28.58358764648438 67.29417419433594 28.15899658203125 69.17652893066406 28.15899658203125 Z M 189.0318908691406 50.28114318847656 L 75.55830383300781 50.28114318847656 L 18.83538818359375 148.3206329345703 L 75.55827331542969 246.357177734375 L 189.0324401855469 246.357177734375 L 245.7548675537109 148.3206634521484 L 189.0318908691406 50.28114318847656 Z" stroke="none" fill="#23702a"/>
        </g>
      </g>
    </g>
    <g id="Group_79" data-name="Group 79" transform="translate(997.528 9037.6)">
      <g id="Group_78" data-name="Group 78" transform="translate(0 0)">
        <path id="Path_158" data-name="Path 158" d="M22.844,35.393a9.707,9.707,0,0,0,4.309,16.229L38.7,54.772a1.6,1.6,0,0,0,.838,0l11.547-3.15a9.708,9.708,0,0,0,4.308-16.23l-.15-.15a6.1,6.1,0,0,1,0-8.623l2.527-2.527a1.591,1.591,0,0,0,0-2.253L51.4,15.467a1.591,1.591,0,0,0-2.253,0l-1.5,1.5a4.325,4.325,0,0,1-5.906,0l-1.5-1.5a1.591,1.591,0,0,0-2.253,0l-1.5,1.5a4.325,4.325,0,0,1-5.906,0l-1.5-1.5a1.591,1.591,0,0,0-2.253,0L20.47,21.839a1.591,1.591,0,0,0,0,2.253L23,26.619a6.1,6.1,0,0,1,0,8.625ZM25.1,37.646l.15-.15a9.284,9.284,0,0,0,0-13.13l-1.4-1.4,4.12-4.12.37.37a7.361,7.361,0,0,0,10.412,0l.37-.37.37.37a7.361,7.361,0,0,0,10.412,0l.37-.37,4.12,4.12-1.4,1.4a9.284,9.284,0,0,0,0,13.13l.15.15a6.52,6.52,0,0,1-2.895,10.9L39.117,51.584,27.993,48.549a6.521,6.521,0,0,1-2.9-10.9Z" transform="translate(10.269 -3.848)" fill="#23702a"/>
        <path id="Path_159" data-name="Path 159" d="M29.02,32.37l-1.346,4.04A1.593,1.593,0,0,0,29.9,38.339l5.66-2.829,5.66,2.829a1.565,1.565,0,0,0,.712.169,1.591,1.591,0,0,0,1.51-2.1L42.1,32.371l2.754-4.131a1.593,1.593,0,0,0-1.325-2.477H39.6l-2.713-4.07a1.653,1.653,0,0,0-2.651,0l-2.713,4.07H27.593a1.592,1.592,0,0,0-1.325,2.476Zm3.352-3.42A1.6,1.6,0,0,0,33.7,28.24l1.861-2.791,1.861,2.791a1.6,1.6,0,0,0,1.325.709h1.8l-1.536,2.3a1.592,1.592,0,0,0-.185,1.388L39.2,33.77,36.271,32.3a1.6,1.6,0,0,0-1.424,0L31.914,33.77l.376-1.131a1.592,1.592,0,0,0-.185-1.388l-1.536-2.3Z" transform="translate(13.827 -0.274)" fill="#23702a"/>
        <path id="Path_160" data-name="Path 160" d="M35,33h3.186v3.186H35Z" transform="translate(19.165 6.827)" fill="#23702a"/>
        <path id="Path_161" data-name="Path 161" d="M27,33h9.559v3.186H27Z" transform="translate(14.42 6.827)" fill="#23702a"/>
        <path id="Path_162" data-name="Path 162" d="M85.062,12H8.593A1.592,1.592,0,0,0,7,13.593V61.386a1.592,1.592,0,0,0,1.593,1.593H85.062a1.592,1.592,0,0,0,1.593-1.593V13.593A1.592,1.592,0,0,0,85.062,12ZM83.469,59.793H10.186V15.186H83.469Z" transform="translate(2.559 -5.628)" fill="#23702a"/>
        <path id="Path_163" data-name="Path 163" d="M94.993,8H5.779A4.785,4.785,0,0,0,1,12.779V66.945a4.785,4.785,0,0,0,4.779,4.779H39.234V74.91H31.269a4.785,4.785,0,0,0-4.779,4.779v3.186a1.592,1.592,0,0,0,1.593,1.593H72.689a1.592,1.592,0,0,0,1.593-1.593V79.689A4.785,4.785,0,0,0,69.5,74.91H61.538V71.724H94.993a4.785,4.785,0,0,0,4.779-4.779V12.779A4.785,4.785,0,0,0,94.993,8ZM71.1,79.689v1.593H29.676V79.689A1.594,1.594,0,0,1,31.269,78.1H69.5A1.594,1.594,0,0,1,71.1,79.689ZM58.351,74.91H42.42V71.724H58.351Zm38.234-7.965a1.594,1.594,0,0,1-1.593,1.593H5.779a1.594,1.594,0,0,1-1.593-1.593V12.779a1.594,1.594,0,0,1,1.593-1.593H94.993a1.594,1.594,0,0,1,1.593,1.593Z" transform="translate(-1 -8)" fill="#23702a"/>
      </g>
    </g>
    <text id="برامج_تكنولوجية" data-name="برامج تكنولوجية" transform="translate(1299.791 9184.579)" fill="#2a2a2a" font-size="17" font-family="Tajawal-Medium, Tajawal" font-weight="500"><tspan x="-55.429" y="0">برامج تكنولوجية</tspan></text>
    <text id="_55" data-name="+55" transform="translate(1299.251 9153.655)" fill="#2a2a2a" font-size="27" font-family="Tajawal-Bold, Tajawal" font-weight="700"><tspan x="-20.142" y="0">+55</tspan></text>
    <g id="Group_71" data-name="Group 71" transform="translate(1167.408 8999.513)">
      <g id="Group_67-3" data-name="Group 67">
        <g id="Path_150-3" data-name="Path 150" transform="translate(0 -33.159)" fill="none" stroke-linecap="round" stroke-linejoin="round">
          <path d="M263.781,145.01,200.664,35.938a5.838,5.838,0,0,0-5.25-2.779H69.177a5.838,5.838,0,0,0-5.25,2.779L.81,145.136a5.957,5.957,0,0,0,0,6L63.927,260.452a6.056,6.056,0,0,0,5.25,3.027H195.414a6.086,6.086,0,0,0,5.25-3.059l63.117-109.335A6.1,6.1,0,0,0,263.781,145.01ZM191.916,251.357H72.675L13.059,148.321,72.675,45.281H191.916l59.616,103.04Z" stroke="none"/>
          <path d="M 69.17652893066406 33.15899658203125 C 67.01017761230469 33.15899658203125 65.00971984863281 34.06182861328125 63.92655944824219 35.93826293945312 L 0.80950927734375 145.1362915039062 C -0.2705078125 147.0127105712891 -0.2705078125 149.2581329345703 0.80950927734375 151.1345672607422 L 63.92655944824219 260.4519348144531 C 65.00971984863281 262.328857421875 67.01017761230469 263.4792785644531 69.17652893066406 263.4792785644531 L 195.4136810302734 263.4792785644531 C 197.5800170898438 263.4792785644531 199.5804748535156 262.296875 200.6636352539062 260.42041015625 L 263.7806701660156 151.08544921875 C 264.8617858886719 149.2090148925781 264.8617858886719 146.8866424560547 263.7811889648438 145.0101776123047 L 200.6641845703125 35.93826293945312 C 199.5809936523438 34.06182861328125 197.5805206298828 33.15899658203125 195.4141845703125 33.15899658203125 L 69.17652893066406 33.15899658203125 M 191.9161071777344 251.357177734375 L 72.67460632324219 251.357177734375 L 13.05879211425781 148.3206787109375 L 72.67460632324219 45.28114318847656 L 191.9156036376953 45.28114318847656 L 251.5314483642578 148.3206787109375 L 191.9161071777344 251.357177734375 M 69.17652893066406 28.15899658203125 L 195.4141845703125 28.15899658203125 C 197.2965240478516 28.15899658203125 199.1275634765625 28.58358764648438 200.7093658447266 29.38690185546875 C 202.5091400146484 30.3009033203125 203.9898376464844 31.7001953125 204.9918060302734 33.4339599609375 L 204.9918365478516 33.4339599609375 L 268.1088256835938 142.5058746337891 C 268.1105651855469 142.5089111328125 268.1123352050781 142.5119476318359 268.1140747070312 142.5149383544922 C 270.0797424316406 145.9282989501953 270.079345703125 150.1687927246094 268.113037109375 153.5815582275391 L 204.9939117431641 262.920166015625 C 203.0146026611328 266.3490905761719 199.3436279296875 268.4792785644531 195.4136810302734 268.4792785644531 L 69.17652893066406 268.4792785644531 C 67.23799133300781 268.4792785644531 65.32659912109375 267.9683837890625 63.64906311035156 267.001708984375 C 61.96763610839844 266.0328674316406 60.56610107421875 264.6321716308594 59.595947265625 262.9511108398438 L -3.520538330078125 153.6346435546875 C -3.52166748046875 153.6327209472656 -3.522796630859375 153.6307525634766 -3.523895263671875 153.6288299560547 C -4.489898681640625 151.9505157470703 -5.000518798828125 150.0509490966797 -5.000518798828125 148.1354064941406 C -5.000518798828125 146.2199096679688 -4.489898681640625 144.3203277587891 -3.523895263671875 142.6420288085938 C -3.52239990234375 142.639404296875 -3.520904541015625 142.6367950439453 -3.51934814453125 142.6341705322266 L 59.59767150878906 33.43612670898438 C 60.59825134277344 31.7027587890625 62.07998657226562 30.30172729492188 63.88133239746094 29.38690185546875 C 65.463134765625 28.58358764648438 67.29417419433594 28.15899658203125 69.17652893066406 28.15899658203125 Z M 189.0318908691406 50.28114318847656 L 75.55830383300781 50.28114318847656 L 18.83538818359375 148.3206329345703 L 75.55827331542969 246.357177734375 L 189.0324401855469 246.357177734375 L 245.7548675537109 148.3206634521484 L 189.0318908691406 50.28114318847656 Z" stroke="none" fill="#23702a"/>
        </g>
      </g>
    </g>
    <g id="Group_83" data-name="Group 83" transform="translate(1261.719 9037.6)">
      <g id="Group_82" data-name="Group 82" transform="translate(0 0)">
        <path id="Path_165" data-name="Path 165" d="M35.5,17A18.5,18.5,0,1,0,54,35.5,18.521,18.521,0,0,0,35.5,17Zm0,34.534A16.034,16.034,0,1,1,51.534,35.5,16.052,16.052,0,0,1,35.5,51.534Z" transform="translate(2.734 2.734)" fill="#23702a"/>
        <path id="Path_166" data-name="Path 166" d="M39.8,28.4V27.167a6.167,6.167,0,1,0-12.334,0V28.4A2.469,2.469,0,0,0,25,30.867V43.2a2.469,2.469,0,0,0,2.467,2.467H39.8A2.469,2.469,0,0,0,42.267,43.2V30.867A2.469,2.469,0,0,0,39.8,28.4Zm-9.867-1.233a3.7,3.7,0,1,1,7.4,0V28.4h-7.4ZM27.467,43.2V30.867H39.8V43.2Z" transform="translate(4.601 3.667)" fill="#23702a"/>
        <path id="Path_167" data-name="Path 167" d="M32.7,30a3.691,3.691,0,0,0-1.233,7.173v2.694h2.467V37.173A3.691,3.691,0,0,0,32.7,30Zm0,4.933A1.233,1.233,0,1,1,33.933,33.7,1.235,1.235,0,0,1,32.7,34.933Z" transform="translate(5.534 5.768)" fill="#23702a"/>
        <path id="Path_168" data-name="Path 168" d="M49,12.4h9.867V5H49Zm2.467-4.933H56.4V9.933H51.467Z" transform="translate(10.201 -0.067)" fill="#23702a"/>
        <path id="Path_169" data-name="Path 169" d="M5,57.334h9.867V45H5Zm2.467-9.867H12.4v7.4H7.467Z" transform="translate(-0.067 9.268)" fill="#23702a"/>
        <path id="Path_170" data-name="Path 170" d="M7,57h4.933v2.467H7Z" transform="translate(0.4 12.068)" fill="#23702a"/>
        <path id="Path_171" data-name="Path 171" d="M73.768,50.335H67.6V40.468h-5c.022-.411.063-.816.063-1.233s-.041-.823-.063-1.233h5V24.434h6.783A3.083,3.083,0,0,0,76.852,19.5L75,17.034V4.7A3.7,3.7,0,0,0,71.3,1H58.968a3.7,3.7,0,0,0-3.7,3.7V17.034L53.417,19.5a3.059,3.059,0,0,0-.426.8,23.4,23.4,0,0,0-5.123-2.836v-1.9a3.7,3.7,0,1,0-2.467,0v1.078a23.234,23.234,0,0,0-4.933-.788V8.173a3.7,3.7,0,1,0-2.467,0v7.69a23.3,23.3,0,0,0-7.4,1.606V13.107a3.7,3.7,0,1,0-2.467,0v5.5a23.476,23.476,0,0,0-12.012,16.93H13.334V25.667h3.354A2.467,2.467,0,0,0,19.08,22.6l-.467-1.867H19.5a3.7,3.7,0,0,0,3.7-3.7V4.7A3.7,3.7,0,0,0,19.5,1H4.7A3.7,3.7,0,0,0,1,4.7V17.034a3.7,3.7,0,0,0,3.7,3.7h.887L5.119,22.6a2.467,2.467,0,0,0,2.394,3.064h3.354V38h5c-.022.411-.063.816-.063,1.233s.041.823.063,1.233h-5v9.867H4.7a3.7,3.7,0,0,0-3.7,3.7V73.769a3.7,3.7,0,0,0,3.7,3.7H17.034a3.7,3.7,0,0,0,3.7-3.7V54.035a3.6,3.6,0,0,0-.056-.544,23.588,23.588,0,0,0,7.456,6.374v5.5a3.7,3.7,0,1,0,2.467,0V61A23.228,23.228,0,0,0,38,62.605V70.3a3.7,3.7,0,1,0,2.467,0v-7.69a23.313,23.313,0,0,0,4.933-.788V62.9a3.7,3.7,0,1,0,2.467,0V61a23.515,23.515,0,0,0,9.922-7.509,3.6,3.6,0,0,0-.055.544V73.769a3.7,3.7,0,0,0,3.7,3.7H73.768a3.7,3.7,0,0,0,3.7-3.7V54.035A3.7,3.7,0,0,0,73.768,50.335ZM46.634,10.867A1.233,1.233,0,1,1,45.4,12.1,1.235,1.235,0,0,1,46.634,10.867ZM29.367,8.4a1.233,1.233,0,1,1-1.233,1.233A1.235,1.235,0,0,1,29.367,8.4ZM4.7,3.467H19.5A1.235,1.235,0,0,1,20.734,4.7v8.634H3.467V4.7A1.235,1.235,0,0,1,4.7,3.467ZM3.467,17.034V15.8H20.734v1.233A1.235,1.235,0,0,1,19.5,18.267H4.7A1.235,1.235,0,0,1,3.467,17.034ZM7.512,23.2l.617-2.467H16.07l.615,2.467ZM29.367,70.068A1.233,1.233,0,1,1,30.6,68.835,1.235,1.235,0,0,1,29.367,70.068ZM46.634,67.6a1.233,1.233,0,1,1,1.233-1.233A1.235,1.235,0,0,1,46.634,67.6ZM75,54.035v1.233H60.2V54.035A1.235,1.235,0,0,1,61.435,52.8H73.768A1.235,1.235,0,0,1,75,54.035Zm-14.8,3.7H75V70.068H60.2Zm4.933-22.2H62.346a23.323,23.323,0,0,0-4.964-11.1h7.753ZM57.735,4.7a1.235,1.235,0,0,1,1.233-1.233H71.3A1.235,1.235,0,0,1,72.535,4.7V15.8h-14.8Zm-2.343,16.28,2.035-2.713H72.843l2.034,2.712a.616.616,0,0,1-.492.988h-18.5a.617.617,0,0,1-.493-.987ZM39.234,3.467A1.233,1.233,0,1,1,38,4.7a1.235,1.235,0,0,1,1.233-1.233Zm-20.967,70.3A1.235,1.235,0,0,1,17.034,75H4.7a1.235,1.235,0,0,1-1.233-1.233V54.035A1.235,1.235,0,0,1,4.7,52.8H17.034a1.235,1.235,0,0,1,1.233,1.233ZM17.034,50.335h-3.7v-7.4h2.789a23.244,23.244,0,0,0,2.8,7.935A3.667,3.667,0,0,0,17.034,50.335ZM39.234,75a1.233,1.233,0,1,1,1.233-1.233A1.235,1.235,0,0,1,39.234,75Zm0-14.8A20.967,20.967,0,1,1,60.2,39.234,20.991,20.991,0,0,1,39.234,60.2ZM62.346,42.934h2.789v7.4h-3.7a3.667,3.667,0,0,0-1.888.535,23.219,23.219,0,0,0,2.8-7.935ZM73.768,75H61.435A1.235,1.235,0,0,1,60.2,73.769V72.535H75v1.233A1.235,1.235,0,0,1,73.768,75Z" transform="translate(-1 -1)" fill="#23702a"/>
      </g>
    </g>
    <rect id="Rectangle_76" data-name="Rectangle 76" width="12.091" height="40.505" transform="translate(925.307 9093.97) rotate(30)" fill="#fff"/>
    <rect id="Rectangle_77" data-name="Rectangle 77" width="12.091" height="40.505" transform="translate(1178.243 9093.97) rotate(30)" fill="#fff"/>
    <rect id="Rectangle_80" data-name="Rectangle 80" width="12.091" height="40.505" transform="translate(1188.482 9129.048) rotate(150)" fill="#fff"/>
    <rect id="Rectangle_81" data-name="Rectangle 81" width="12.091" height="40.505" transform="translate(935.778 9129.048) rotate(150)" fill="#fff"/>
  </g>
</svg>
