<svg xmlns="http://www.w3.org/2000/svg" width="64" height="12.418" viewBox="0 0 64 12.418">
  <g id="bullet" transform="translate(0 -40.128)">
    <g id="Group_8" data-name="Group 8" transform="translate(0 40.128)">
      <g id="Group_7" data-name="Group 7">
        <path id="Path_132" data-name="Path 132" d="M47,43.529c-.432-1.811-1.235-3.032-2.158-3.032V52.608c.923,0,1.726-1.22,2.158-3.032v3.035H69.276V50.485h-15.4a2.012,2.012,0,1,1,0-4.024H69.276v-.683H53.3a.455.455,0,1,1,0-.911H69.276V40.312H47Z" transform="translate(-16.022 -40.194)" fill="#23702a"/>
        <path id="Path_133" data-name="Path 133" d="M85.1,40.128V52.312c5.139,0,9.3-2.727,9.3-6.092S90.243,40.128,85.1,40.128Z" transform="translate(-30.407 -40.128)" fill="#23702a"/>
        <rect id="Rectangle_1" data-name="Rectangle 1" width="21.637" height="0.911" transform="translate(0.684 0.346)" fill="#23702a"/>
        <rect id="Rectangle_2" data-name="Rectangle 2" width="15.716" height="0.911" transform="translate(9.111 4.446)" fill="#23702a"/>
        <rect id="Rectangle_3" data-name="Rectangle 3" width="10.364" height="0.911" transform="translate(9.908 6.382)" fill="#23702a"/>
        <rect id="Rectangle_4" data-name="Rectangle 4" width="19.362" height="0.91" transform="translate(0 9.116)" fill="#23702a"/>
      </g>
    </g>
  </g>
</svg>
