<svg xmlns="http://www.w3.org/2000/svg" width="70.463" height="70.463" viewBox="0 0 70.463 70.463">
  <g id="vf-shapes" transform="translate(-405.25 -393)">
    <g id="Group_4235" data-name="Group 4235" transform="translate(427.932 415.747)">
      <g id="Group_7142" data-name="Group 7142" transform="translate(0 0)">
        <g id="Group_7143" data-name="Group 7143" transform="translate(8.306 8.307)">
          <circle id="Ellipse_250" data-name="Ellipse 250" cx="4.113" cy="4.113" r="4.113" fill="#23702a" stroke="#23702a" stroke-width="1"/>
        </g>
        <g id="Group_7141" data-name="Group 7141">
          <path id="Path_10637" data-name="Path 10637" d="M3424.823,1573.537a12.42,12.42,0,1,1,12.419-12.419,12.42,12.42,0,0,1-12.419,12.419Zm0-24.38a11.96,11.96,0,1,0,11.96,11.96,11.96,11.96,0,0,0-11.96-11.96Z" transform="translate(-3412.404 -1548.698)" fill="#fff" stroke="#030519" stroke-width="0.2"/>
          <g id="Group_7140" data-name="Group 7140" transform="translate(4.317 4.319)">
            <g id="Group_7139" data-name="Group 7139" transform="translate(0 0)">
              <path id="Path_10640" data-name="Path 10640" d="M3436.124,1580.517a8.1,8.1,0,1,1,8.1-8.1,8.1,8.1,0,0,1-8.1,8.1Zm0-15.776a7.678,7.678,0,1,0,7.678,7.678,7.678,7.678,0,0,0-7.678-7.678Z" transform="translate(-3428.025 -1564.32)" fill="#fff" stroke="#030519" stroke-width="0.2"/>
            </g>
          </g>
        </g>
      </g>
    </g>
    <line id="Line_1" data-name="Line 1" y2="17.398" transform="translate(440.222 393.5)" fill="none" stroke="#030519" stroke-linecap="round" stroke-width="1"/>
    <line id="Line_3" data-name="Line 3" y1="17.398" transform="translate(423.148 428.231) rotate(90)" fill="none" stroke="#030519" stroke-linecap="round" stroke-width="1"/>
    <line id="Line_2" data-name="Line 2" y2="17.398" transform="translate(440.222 445.565)" fill="none" stroke="#030519" stroke-linecap="round" stroke-width="1"/>
    <line id="Line_4" data-name="Line 4" y1="17.398" transform="translate(475.213 428.231) rotate(90)" fill="none" stroke="#030519" stroke-linecap="round" stroke-width="1"/>
    <g id="Group_9" data-name="Group 9" transform="translate(419.318 407.782)">
      <line id="Line_5" data-name="Line 5" y2="7.011" transform="translate(7.271 0)" fill="none" stroke="#23702a" stroke-linecap="square" stroke-width="1"/>
      <line id="Line_6" data-name="Line 6" x1="7.271" transform="translate(0 7.011)" fill="none" stroke="#23702a" stroke-linecap="square" stroke-width="1"/>
    </g>
    <g id="Group_10" data-name="Group 10" transform="translate(453.984 407.782)">
      <line id="Line_5-2" data-name="Line 5" y2="7.011" transform="translate(0)" fill="none" stroke="#23702a" stroke-linecap="square" stroke-width="1"/>
      <line id="Line_6-2" data-name="Line 6" x2="7.271" transform="translate(0 7.011)" fill="none" stroke="#23702a" stroke-linecap="square" stroke-width="1"/>
    </g>
    <g id="Group_11" data-name="Group 11" transform="translate(453.984 441.929)">
      <line id="Line_5-3" data-name="Line 5" y1="7.011" transform="translate(0 0)" fill="none" stroke="#23702a" stroke-linecap="square" stroke-width="1"/>
      <line id="Line_6-3" data-name="Line 6" x2="7.271" transform="translate(0 0)" fill="none" stroke="#23702a" stroke-linecap="square" stroke-width="1"/>
    </g>
    <g id="Group_14" data-name="Group 14" transform="translate(419.318 441.929)">
      <line id="Line_5-4" data-name="Line 5" y1="7.011" transform="translate(7.271 0)" fill="none" stroke="#23702a" stroke-linecap="square" stroke-width="1"/>
      <line id="Line_6-4" data-name="Line 6" x1="7.271" transform="translate(0 0)" fill="none" stroke="#23702a" stroke-linecap="square" stroke-width="1"/>
    </g>
  </g>
</svg>
