<svg xmlns="http://www.w3.org/2000/svg" width="19" height="19" viewBox="0 0 19 19">
  <g id="Group_28" data-name="Group 28" transform="translate(-9164 -4258)">
    <circle id="Ellipse_1" data-name="Ellipse 1" cx="9.5" cy="9.5" r="9.5" transform="translate(9164 4258)" fill="#fff"/>
    <g id="Group_27" data-name="Group 27" transform="translate(9164.121 4258.32)">
      <path id="Path_135" data-name="Path 135" d="M13.284,5.308a2.156,2.156,0,0,1,0,3.045l-1.969,1.969a2.151,2.151,0,0,1-3.628-1.08.4.4,0,1,1,.789-.164,1.336,1.336,0,0,0,.364.675,1.349,1.349,0,0,0,1.906,0l1.969-1.969a1.348,1.348,0,0,0-1.906-1.906l-.776.776a.4.4,0,0,1-.57-.57l.776-.776a2.158,2.158,0,0,1,3.045,0ZM7.769,11.253l-.781.781a1.355,1.355,0,0,1-.96.4h0a1.332,1.332,0,0,1-1.34-1.344,1.355,1.355,0,0,1,.4-.96L7.064,8.146a1.355,1.355,0,0,1,.96-.4h0A1.331,1.331,0,0,1,9.341,8.812a.4.4,0,0,0,.789-.161,2.136,2.136,0,0,0-2.1-1.709H8.022a2.156,2.156,0,0,0-1.527.634L4.513,9.558a2.156,2.156,0,0,0-.634,1.527,2.14,2.14,0,0,0,2.145,2.154A2.164,2.164,0,0,0,7.558,12.6l.781-.781a.4.4,0,1,0-.57-.569Z"/>
    </g>
  </g>
</svg>
