<svg xmlns="http://www.w3.org/2000/svg" width="1701.66" height="390.974" viewBox="0 0 1701.66 390.974">
  <g id="Group_88" data-name="Group 88" transform="translate(-4901 -5555)">
    <g id="Group_87" data-name="Group 87">
      <text id="ضابط_أمن" data-name="ضابط أمن" transform="translate(5125 5866)" fill="#2a2a2a" font-size="28" font-family="Tajawal-Medium, Tajawal" font-weight="500"><tspan x="-60.48" y="0">ضابط أمن</tspan></text>
      <text id="_9000" data-name="+9000" transform="translate(5125 5816)" fill="#2a2a2a" font-size="46" font-family="Tajawal-Bold, Tajawal" font-weight="700"><tspan x="-62.215" y="0">+9000</tspan></text>
      <g id="Group_69" data-name="Group 69" transform="translate(4906 5526.841)">
        <g id="Group_68" data-name="Group 68" transform="translate(0 33.159)">
          <g id="Group_67" data-name="Group 67">
            <g id="Path_150" data-name="Path 150" transform="translate(0 -33.159)" fill="none" stroke-linecap="round" stroke-linejoin="round">
              <path d="M436.323,218.173,331.921,37.756a9.657,9.657,0,0,0-8.684-4.6H114.426a9.657,9.657,0,0,0-8.684,4.6L1.339,218.381a9.854,9.854,0,0,0,0,9.922l104.4,180.823a10.017,10.017,0,0,0,8.684,5.008h208.81a10.067,10.067,0,0,0,8.684-5.06l104.4-180.852A10.085,10.085,0,0,0,436.323,218.173ZM317.451,394.082H120.212L21.6,223.649,120.212,53.21H317.45l98.611,170.438Z" stroke="none"/>
              <path d="M 114.4259338378906 33.15899658203125 C 110.8424987792969 33.15899658203125 107.5335083007812 34.65234375 105.7418518066406 37.75616455078125 L 1.339385986328125 218.38134765625 C -0.4471435546875 221.4851684570312 -0.4471435546875 225.1993408203125 1.339385986328125 228.3031616210938 L 105.7418518066406 409.1258239746094 C 107.5335693359375 412.2305297851562 110.8425598144531 414.1333312988281 114.4259338378906 414.1333312988281 L 323.2359619140625 414.1333312988281 C 326.8193969726562 414.1333312988281 330.1283264160156 412.1775207519531 331.9200439453125 409.0736389160156 L 436.3224487304688 228.221923828125 C 438.1107482910156 225.1181030273438 438.1107482910156 221.2766418457031 436.3233337402344 218.1728057861328 L 331.9208679199219 37.75616455078125 C 330.129150390625 34.65234375 326.8202209472656 33.15899658203125 323.23681640625 33.15899658203125 L 114.4259338378906 33.15899658203125 M 317.4505615234375 394.0820007324219 L 120.2120971679688 394.0820007324219 L 21.60098266601562 223.6486968994141 L 120.2120971679688 53.2103271484375 L 317.4497375488281 53.2103271484375 L 416.0608520507812 223.6486968994141 L 317.4505615234375 394.0820007324219 M 114.4259338378906 28.15899658203125 L 323.23681640625 28.15899658203125 C 325.8382568359375 28.15899658203125 328.3549194335938 28.73873901367188 330.5146789550781 29.8355712890625 C 332.9261169433594 31.06015014648438 334.9087829589844 32.93307495117188 336.2485046386719 35.25186157226562 L 440.6509704589844 215.6685180664062 C 440.6527404785156 215.6715240478516 440.6544494628906 215.6745758056641 440.6562194824219 215.6776275634766 C 443.3277587890625 220.3166351318359 443.3271484375 226.0798034667969 440.6548156738281 230.7180480957031 L 336.2502746582031 411.5733947753906 C 333.5585632324219 416.2365112304688 328.5717468261719 419.1333312988281 323.2359619140625 419.1333312988281 L 114.4259338378906 419.1333312988281 C 111.7916870117188 419.1333312988281 109.1947326660156 418.4392700195312 106.9158020019531 417.1260986328125 C 104.6322631835938 415.8103942871094 102.7288513183594 413.9081115722656 101.4112854003906 411.625 L -2.99066162109375 230.80322265625 C -2.991790771484375 230.8012847900391 -2.992889404296875 230.7993927001953 -2.9940185546875 230.7974548339844 C -4.306671142578125 228.5169219970703 -5.00048828125 225.9389343261719 -5.00048828125 223.3422241210938 C -5.00048828125 220.7455749511719 -4.306671142578125 218.1675720214844 -2.9940185546875 215.8870391845703 C -2.9925537109375 215.8844604492188 -2.99102783203125 215.8818054199219 -2.989501953125 215.8792266845703 L 101.4129638671875 35.25405883789062 C 102.7512817382812 32.93557739257812 104.7349243164062 31.06103515625 107.1479797363281 29.8355712890625 C 109.3078002929688 28.73873901367188 111.824462890625 28.15899658203125 114.4259338378906 28.15899658203125 Z M 314.5660705566406 58.2103271484375 L 123.0957641601562 58.2103271484375 L 27.3775634765625 223.6486206054688 L 123.0957641601562 389.0820007324219 L 314.56689453125 389.0820007324219 L 410.2843017578125 223.6486358642578 L 314.5660705566406 58.2103271484375 Z" stroke="none" fill="#23702a"/>
            </g>
          </g>
        </g>
      </g>
      <g id="Group_77" data-name="Group 77" transform="translate(5061 5622)">
        <g id="Group_76" data-name="Group 76" transform="translate(1 1)">
          <path id="Path_156" data-name="Path 156" d="M125.9,113.257l-36.942-8.4A8.115,8.115,0,0,1,82.6,96.9V85.744A25.158,25.158,0,0,0,90.42,70.888l.073-.524h2.311a2.039,2.039,0,0,0,1.991-1.6l4.08-18.361a2.017,2.017,0,0,0,.049-.443v-13.2a28.621,28.621,0,0,0,9.054-10.545l.93-1.861a2.039,2.039,0,0,0-.257-2.218l-.394-.473A48.641,48.641,0,0,0,82.521,5.509L64.739,1.061a2.03,2.03,0,0,0-.989,0L45.968,5.507A48.641,48.641,0,0,0,20.23,21.662l-.394.473a2.039,2.039,0,0,0-.257,2.218l.93,1.861a28.588,28.588,0,0,0,9.054,10.545v13.2a2.017,2.017,0,0,0,.049.443l4.08,18.361a2.035,2.035,0,0,0,1.989,1.6h2.311l.075.524a25.158,25.158,0,0,0,7.816,14.856V96.9a8.115,8.115,0,0,1-6.353,7.956l-36.944,8.4A2.039,2.039,0,0,0,1,115.247v12.241H5.08v-4.335L30.37,119.78a6.137,6.137,0,0,0,5.312-6.065V109.92l3.4-.773,9.2,13.377a2.045,2.045,0,0,0,1.418.867,2.275,2.275,0,0,0,.263.016,2.038,2.038,0,0,0,1.328-.492l4.058-3.478,5.412,5.412a2.035,2.035,0,0,0,1.442.6h4.08a2.035,2.035,0,0,0,1.442-.6l5.412-5.412,4.058,3.478a2.038,2.038,0,0,0,1.328.492,2.275,2.275,0,0,0,.263-.016,2.045,2.045,0,0,0,1.418-.867l9.2-13.377,3.4.773v3.795a6.141,6.141,0,0,0,5.312,6.067l25.289,3.372v4.333h4.08V115.247A2.039,2.039,0,0,0,125.9,113.257Zm-16.774.371v3.5l-4.08-.545V112.7ZM80.734,45.2a101.082,101.082,0,0,0-32.981,0L33.642,47.555V37.41l14.783-2.462a96.965,96.965,0,0,1,31.638,0L94.845,37.41V47.555Zm3.272,4.682A11.672,11.672,0,0,1,77.29,52H51.2a11.683,11.683,0,0,1-6.718-2.118l3.944-.657a96.965,96.965,0,0,1,31.638,0ZM24.157,24.39l-.33-.661A44.58,44.58,0,0,1,46.958,9.466L64.244,5.143,81.53,9.466A44.58,44.58,0,0,1,104.66,23.729l-.33.661a24.5,24.5,0,0,1-7.948,9.14L80.734,30.922a101.082,101.082,0,0,0-32.981,0L32.106,33.53A24.483,24.483,0,0,1,24.157,24.39ZM42.106,70.311l-.324-2.275a2.041,2.041,0,0,0-2.02-1.752H37.318L34.06,51.621l5.308-.885A15.74,15.74,0,0,0,51.2,56.083H77.288a15.737,15.737,0,0,0,11.829-5.347l5.308.885L91.169,66.284H88.725a2.041,2.041,0,0,0-2.02,1.752l-.324,2.275A21.107,21.107,0,0,1,74.926,86.2a24.283,24.283,0,0,1-21.364,0A21.11,21.11,0,0,1,42.106,70.311Zm9.631,19.542a27.966,27.966,0,0,0,25.012,0c.616-.308,1.191-.673,1.775-1.026v7.057L64.244,106.578,49.963,95.884V88.827C50.546,89.18,51.122,89.545,51.738,89.853ZM23.441,112.7v3.886l-4.08.545v-3.5ZM5.08,116.875l10.2-2.318v3.119l-10.2,1.361Zm26.522-3.16a2.046,2.046,0,0,1-1.771,2.022l-2.309.308v-4.27l4.08-.928Zm18.757,4.627-7.218-10.5a12.094,12.094,0,0,0,6.245-7.293l11.6,8.687Zm15.081,3.026H63.048l-4.592-4.592,5.788-4.962,5.788,4.962Zm12.69-3.026L67.5,109.234l11.6-8.687a12.088,12.088,0,0,0,6.245,7.293Zm18.757-4.627v-2.868l4.08.928v4.27l-2.309-.308A2.046,2.046,0,0,1,96.886,113.714Zm16.321,3.962v-3.119l10.2,2.318v2.16Z" transform="translate(-1 -1)" fill="#23702a"/>
          <path id="Path_157" data-name="Path 157" d="M36.27,25.232l.435.108a2.038,2.038,0,0,0,.991,0l.435-.108A12.224,12.224,0,0,0,47.4,13.356V7.04A2.041,2.041,0,0,0,45.361,5H29.04A2.041,2.041,0,0,0,27,7.04v6.316A12.224,12.224,0,0,0,36.27,25.232ZM31.08,9.08H43.321v4.276a8.147,8.147,0,0,1-6.12,7.9,8.149,8.149,0,0,1-6.12-7.9Z" transform="translate(26.043 3.16)" fill="#23702a"/>
        </g>
      </g>
    </g>
    <g id="Group_86" data-name="Group 86">
      <text id="نظام_متكامل" data-name="نظام متكامل" transform="translate(5543 5866)" fill="#2a2a2a" font-size="28" font-family="Tajawal-Medium, Tajawal" font-weight="500"><tspan x="-76.076" y="0">نظام متكامل</tspan></text>
      <text id="_90" data-name="+90" transform="translate(5543 5816)" fill="#2a2a2a" font-size="46" font-family="Tajawal-Bold, Tajawal" font-weight="700"><tspan x="-36.317" y="0">+90</tspan></text>
      <g id="Group_68-2" data-name="Group 68" transform="translate(5324 5560)">
        <g id="Group_67-2" data-name="Group 67">
          <g id="Path_150-2" data-name="Path 150" transform="translate(0 -33.159)" fill="none" stroke-linecap="round" stroke-linejoin="round">
            <path d="M436.323,218.173,331.921,37.756a9.657,9.657,0,0,0-8.684-4.6H114.426a9.657,9.657,0,0,0-8.684,4.6L1.339,218.381a9.854,9.854,0,0,0,0,9.922l104.4,180.823a10.017,10.017,0,0,0,8.684,5.008h208.81a10.067,10.067,0,0,0,8.684-5.06l104.4-180.852A10.085,10.085,0,0,0,436.323,218.173ZM317.451,394.082H120.212L21.6,223.649,120.212,53.21H317.45l98.611,170.438Z" stroke="none"/>
            <path d="M 114.4259338378906 33.15899658203125 C 110.8424987792969 33.15899658203125 107.5335083007812 34.65234375 105.7418518066406 37.75616455078125 L 1.339385986328125 218.38134765625 C -0.4471435546875 221.4851684570312 -0.4471435546875 225.1993408203125 1.339385986328125 228.3031616210938 L 105.7418518066406 409.1258239746094 C 107.5335693359375 412.2305297851562 110.8425598144531 414.1333312988281 114.4259338378906 414.1333312988281 L 323.2359619140625 414.1333312988281 C 326.8193969726562 414.1333312988281 330.1283264160156 412.1775207519531 331.9200439453125 409.0736389160156 L 436.3224487304688 228.221923828125 C 438.1107482910156 225.1181030273438 438.1107482910156 221.2766418457031 436.3233337402344 218.1728057861328 L 331.9208679199219 37.75616455078125 C 330.129150390625 34.65234375 326.8202209472656 33.15899658203125 323.23681640625 33.15899658203125 L 114.4259338378906 33.15899658203125 M 317.4505615234375 394.0820007324219 L 120.2120971679688 394.0820007324219 L 21.60098266601562 223.6486968994141 L 120.2120971679688 53.2103271484375 L 317.4497375488281 53.2103271484375 L 416.0608520507812 223.6486968994141 L 317.4505615234375 394.0820007324219 M 114.4259338378906 28.15899658203125 L 323.23681640625 28.15899658203125 C 325.8382568359375 28.15899658203125 328.3549194335938 28.73873901367188 330.5146789550781 29.8355712890625 C 332.9261169433594 31.06015014648438 334.9087829589844 32.93307495117188 336.2485046386719 35.25186157226562 L 440.6509704589844 215.6685180664062 C 440.6527404785156 215.6715240478516 440.6544494628906 215.6745758056641 440.6562194824219 215.6776275634766 C 443.3277587890625 220.3166351318359 443.3271484375 226.0798034667969 440.6548156738281 230.7180480957031 L 336.2502746582031 411.5733947753906 C 333.5585632324219 416.2365112304688 328.5717468261719 419.1333312988281 323.2359619140625 419.1333312988281 L 114.4259338378906 419.1333312988281 C 111.7916870117188 419.1333312988281 109.1947326660156 418.4392700195312 106.9158020019531 417.1260986328125 C 104.6322631835938 415.8103942871094 102.7288513183594 413.9081115722656 101.4112854003906 411.625 L -2.99066162109375 230.80322265625 C -2.991790771484375 230.8012847900391 -2.992889404296875 230.7993927001953 -2.9940185546875 230.7974548339844 C -4.306671142578125 228.5169219970703 -5.00048828125 225.9389343261719 -5.00048828125 223.3422241210938 C -5.00048828125 220.7455749511719 -4.306671142578125 218.1675720214844 -2.9940185546875 215.8870391845703 C -2.9925537109375 215.8844604492188 -2.99102783203125 215.8818054199219 -2.989501953125 215.8792266845703 L 101.4129638671875 35.25405883789062 C 102.7512817382812 32.93557739257812 104.7349243164062 31.06103515625 107.1479797363281 29.8355712890625 C 109.3078002929688 28.73873901367188 111.824462890625 28.15899658203125 114.4259338378906 28.15899658203125 Z M 314.5660705566406 58.2103271484375 L 123.0957641601562 58.2103271484375 L 27.3775634765625 223.6486206054688 L 123.0957641601562 389.0820007324219 L 314.56689453125 389.0820007324219 L 410.2843017578125 223.6486358642578 L 314.5660705566406 58.2103271484375 Z" stroke="none" fill="#23702a"/>
          </g>
        </g>
      </g>
      <g id="Group_79" data-name="Group 79" transform="translate(5460 5615)">
        <g id="Group_78" data-name="Group 78" transform="translate(1 8)">
          <path id="Path_158" data-name="Path 158" d="M24.7,48.733a16.056,16.056,0,0,0,7.128,26.844l19.1,5.21a2.65,2.65,0,0,0,1.386,0l19.1-5.21A16.058,16.058,0,0,0,78.54,48.73l-.248-.248a10.087,10.087,0,0,1,0-14.264l4.179-4.179a2.632,2.632,0,0,0,0-3.726L71.931,15.773a2.632,2.632,0,0,0-3.726,0L65.73,18.247a7.154,7.154,0,0,1-9.769,0l-2.474-2.474a2.632,2.632,0,0,0-3.726,0l-2.474,2.474a7.154,7.154,0,0,1-9.769,0l-2.474-2.474a2.632,2.632,0,0,0-3.726,0L20.777,26.313a2.632,2.632,0,0,0,0,3.726l4.179,4.179a10.1,10.1,0,0,1-.005,14.267Zm3.726,3.726.248-.248a15.357,15.357,0,0,0,0-21.719l-2.316-2.316,6.815-6.815.611.611a12.177,12.177,0,0,0,17.223,0l.611-.611.611.611a12.177,12.177,0,0,0,17.223,0l.611-.611,6.814,6.815-2.316,2.316a15.357,15.357,0,0,0,0,21.719l.248.248a10.785,10.785,0,0,1-4.788,18.032l-18.4,5.023-18.4-5.02A10.787,10.787,0,0,1,28.43,52.459Z" transform="translate(30.068 3.446)" fill="#23702a"/>
          <path id="Path_159" data-name="Path 159" d="M31,39.789l-2.227,6.683a2.635,2.635,0,0,0,3.679,3.191l9.363-4.68,9.363,4.68a2.589,2.589,0,0,0,1.178.279,2.632,2.632,0,0,0,2.5-3.468l-2.227-6.683,4.556-6.833a2.636,2.636,0,0,0-2.192-4.1h-6.5L44,22.128a2.734,2.734,0,0,0-4.385,0l-4.488,6.733h-6.5a2.633,2.633,0,0,0-2.192,4.1Zm5.544-5.658a2.639,2.639,0,0,0,2.192-1.173l3.078-4.617,3.078,4.617a2.639,2.639,0,0,0,2.192,1.173h2.983l-2.54,3.808a2.633,2.633,0,0,0-.306,2.3l.622,1.871-4.851-2.427a2.646,2.646,0,0,0-2.356,0l-4.851,2.427.622-1.871a2.633,2.633,0,0,0-.306-2.3l-2.54-3.808Z" transform="translate(39.879 13.302)" fill="#23702a"/>
          <path id="Path_160" data-name="Path 160" d="M35,33h5.27v5.27H35Z" transform="translate(54.595 32.879)" fill="#23702a"/>
          <path id="Path_161" data-name="Path 161" d="M27,33H42.811v5.27H27Z" transform="translate(41.514 32.879)" fill="#23702a"/>
          <path id="Path_162" data-name="Path 162" d="M136.122,12H9.635A2.633,2.633,0,0,0,7,14.635V93.69a2.633,2.633,0,0,0,2.635,2.635H136.122a2.633,2.633,0,0,0,2.635-2.635V14.635A2.633,2.633,0,0,0,136.122,12Zm-2.635,79.055H12.27V17.27H133.487Z" transform="translate(8.811 -1.459)" fill="#23702a"/>
          <path id="Path_163" data-name="Path 163" d="M156.474,8H8.905A7.915,7.915,0,0,0,1,15.905v89.6a7.915,7.915,0,0,0,7.905,7.905H64.244v5.27H51.068a7.915,7.915,0,0,0-7.905,7.905v5.27a2.633,2.633,0,0,0,2.635,2.635h73.784a2.633,2.633,0,0,0,2.635-2.635v-5.27a7.915,7.915,0,0,0-7.905-7.905H101.136v-5.27h55.338a7.915,7.915,0,0,0,7.905-7.905v-89.6A7.915,7.915,0,0,0,156.474,8ZM116.947,126.582v2.635H48.433v-2.635a2.636,2.636,0,0,1,2.635-2.635h63.244A2.636,2.636,0,0,1,116.947,126.582Zm-21.081-7.905H69.514v-5.27H95.865ZM159.109,105.5a2.636,2.636,0,0,1-2.635,2.635H8.905A2.636,2.636,0,0,1,6.27,105.5v-89.6A2.636,2.636,0,0,1,8.905,13.27H156.474a2.636,2.636,0,0,1,2.635,2.635Z" transform="translate(-1 -8)" fill="#23702a"/>
        </g>
      </g>
    </g>
    <g id="Group_84" data-name="Group 84">
      <text id="عميل_راضي" data-name="عميل راضي" transform="translate(6379 5866)" fill="#2a2a2a" font-size="28" font-family="Tajawal-Medium, Tajawal" font-weight="500"><tspan x="-67.354" y="0">عميل راضي</tspan></text>
      <text id="_550" data-name="+550" transform="translate(6379 5816)" fill="#2a2a2a" font-size="46" font-family="Tajawal-Bold, Tajawal" font-weight="700"><tspan x="-47.265" y="0">+550</tspan></text>
      <g id="Group_72" data-name="Group 72" transform="translate(6160 5560)">
        <g id="Path_150-3" data-name="Path 150" transform="translate(0 -33.159)" fill="none" stroke-linecap="round" stroke-linejoin="round">
          <path d="M436.323,218.173,331.921,37.756a9.657,9.657,0,0,0-8.684-4.6H114.426a9.657,9.657,0,0,0-8.684,4.6L1.339,218.381a9.854,9.854,0,0,0,0,9.922l104.4,180.823a10.017,10.017,0,0,0,8.684,5.008h208.81a10.067,10.067,0,0,0,8.684-5.06l104.4-180.852A10.085,10.085,0,0,0,436.323,218.173ZM317.451,394.082H120.212L21.6,223.649,120.212,53.21H317.45l98.611,170.438Z" stroke="none"/>
          <path d="M 114.4259338378906 33.15899658203125 C 110.8424987792969 33.15899658203125 107.5335083007812 34.65234375 105.7418518066406 37.75616455078125 L 1.339385986328125 218.38134765625 C -0.4471435546875 221.4851684570312 -0.4471435546875 225.1993408203125 1.339385986328125 228.3031616210938 L 105.7418518066406 409.1258239746094 C 107.5335693359375 412.2305297851562 110.8425598144531 414.1333312988281 114.4259338378906 414.1333312988281 L 323.2359619140625 414.1333312988281 C 326.8193969726562 414.1333312988281 330.1283264160156 412.1775207519531 331.9200439453125 409.0736389160156 L 436.3224487304688 228.221923828125 C 438.1107482910156 225.1181030273438 438.1107482910156 221.2766418457031 436.3233337402344 218.1728057861328 L 331.9208679199219 37.75616455078125 C 330.129150390625 34.65234375 326.8202209472656 33.15899658203125 323.23681640625 33.15899658203125 L 114.4259338378906 33.15899658203125 M 317.4505615234375 394.0820007324219 L 120.2120971679688 394.0820007324219 L 21.60098266601562 223.6486968994141 L 120.2120971679688 53.2103271484375 L 317.4497375488281 53.2103271484375 L 416.0608520507812 223.6486968994141 L 317.4505615234375 394.0820007324219 M 114.4259338378906 28.15899658203125 L 323.23681640625 28.15899658203125 C 325.8382568359375 28.15899658203125 328.3549194335938 28.73873901367188 330.5146789550781 29.8355712890625 C 332.9261169433594 31.06015014648438 334.9087829589844 32.93307495117188 336.2485046386719 35.25186157226562 L 440.6509704589844 215.6685180664062 C 440.6527404785156 215.6715240478516 440.6544494628906 215.6745758056641 440.6562194824219 215.6776275634766 C 443.3277587890625 220.3166351318359 443.3271484375 226.0798034667969 440.6548156738281 230.7180480957031 L 336.2502746582031 411.5733947753906 C 333.5585632324219 416.2365112304688 328.5717468261719 419.1333312988281 323.2359619140625 419.1333312988281 L 114.4259338378906 419.1333312988281 C 111.7916870117188 419.1333312988281 109.1947326660156 418.4392700195312 106.9158020019531 417.1260986328125 C 104.6322631835938 415.8103942871094 102.7288513183594 413.9081115722656 101.4112854003906 411.625 L -2.99066162109375 230.80322265625 C -2.991790771484375 230.8012847900391 -2.992889404296875 230.7993927001953 -2.9940185546875 230.7974548339844 C -4.306671142578125 228.5169219970703 -5.00048828125 225.9389343261719 -5.00048828125 223.3422241210938 C -5.00048828125 220.7455749511719 -4.306671142578125 218.1675720214844 -2.9940185546875 215.8870391845703 C -2.9925537109375 215.8844604492188 -2.99102783203125 215.8818054199219 -2.989501953125 215.8792266845703 L 101.4129638671875 35.25405883789062 C 102.7512817382812 32.93557739257812 104.7349243164062 31.06103515625 107.1479797363281 29.8355712890625 C 109.3078002929688 28.73873901367188 111.824462890625 28.15899658203125 114.4259338378906 28.15899658203125 Z M 314.5660705566406 58.2103271484375 L 123.0957641601562 58.2103271484375 L 27.3775634765625 223.6486206054688 L 123.0957641601562 389.0820007324219 L 314.56689453125 389.0820007324219 L 410.2843017578125 223.6486358642578 L 314.5660705566406 58.2103271484375 Z" stroke="none" fill="#23702a"/>
        </g>
      </g>
      <g id="Group_81" data-name="Group 81" transform="translate(6277 5525.099)">
        <g id="Group_80" data-name="Group 80" transform="translate(0 97.901)">
          <path id="Path_164" data-name="Path 164" d="M3.88,161.724l16.323,6.44a6.116,6.116,0,0,0,6.191-1.008l12.926,8.152,2.217,1.558a10.926,10.926,0,0,0,10.441,16.682,10.921,10.921,0,0,0,12.1,10.26,10.922,10.922,0,0,0,12.1,10.258,10.923,10.923,0,0,0,19.24,6.47l2.594-3.045,4.371,3.226a12.032,12.032,0,0,0,19.224-8.264,11.95,11.95,0,0,0,16.185-11.015,11.967,11.967,0,0,0,14.271-11.029A11.951,11.951,0,0,0,166,173.913l11.681-7.5a6.129,6.129,0,0,0,6.93,1.752l16.323-6.439a6.133,6.133,0,0,0,3.451-7.946l-7.46-18.911a3,3,0,0,0-5.582,2.2l7.46,18.91a.126.126,0,0,1-.07.163l-16.323,6.439a.126.126,0,0,1-.163-.07l-20.513-52a.114.114,0,0,1,0-.1.119.119,0,0,1,.069-.067l16.323-6.44a.114.114,0,0,1,.1,0,.118.118,0,0,1,.066.069l7.909,20.047a3,3,0,0,0,5.582-2.2l-7.909-20.046a6.132,6.132,0,0,0-7.946-3.45l-16.324,6.44a6.113,6.113,0,0,0-3.674,7.247l-8.751,3.23a17.035,17.035,0,0,1-8.548.842l-8.845-1.4a3,3,0,0,0-.939,5.926l8.845,1.4a23.052,23.052,0,0,0,11.565-1.14l8.83-3.259L175.161,160.9l-12.874,8.269-.218-.161,0,0L137.25,150.69a3.012,3.012,0,0,0-2.362-.532c-12.429,2.113-23.564-2.306-31.756-10.86a6.78,6.78,0,0,0-9.469-.325c-7.947,7.138-19.053,14.1-26.824,6.713a1.785,1.785,0,0,1,.395-2.845c9.9-6.367,20.152-15.307,28.4-23.655a9.124,9.124,0,0,1,7.906-2.585l11.388,1.805a3,3,0,0,0,.939-5.926l-11.388-1.805a15.143,15.143,0,0,0-13.113,4.293c-.954.965-2.083,2.086-3.356,3.315a42.826,42.826,0,0,0-11.919-2.4c-11.922-.67-12.956-.8-15.664-.622a13.979,13.979,0,0,1-6.253-1.048L48.892,112a6.132,6.132,0,0,0-3.679-7.229L28.89,98.329a6.132,6.132,0,0,0-7.946,3.45l-20.514,52a6.122,6.122,0,0,0,3.45,7.946Zm50.672,24.151a4.931,4.931,0,0,1-7.526-6.372l7.421-8.71a4.931,4.931,0,1,1,7.522,6.378l0,0Zm12.1,10.259a4.931,4.931,0,0,1-7.526-6.373l7.421-8.71a4.947,4.947,0,0,1,7.315-.229c.014.014.025.03.039.044a4.937,4.937,0,0,1,.168,6.563Zm12.1,10.258a4.931,4.931,0,0,1-7.526-6.372l7.421-8.711a4.931,4.931,0,1,1,7.522,6.378l0,0Zm19.556,1.5c-.012.015-.023.032-.036.047l-7.421,8.71a4.931,4.931,0,0,1-7.526-6.372l7.421-8.711a4.93,4.93,0,0,1,7.562,6.325ZM46.736,117.6l5.127,2.145a20,20,0,0,0,8.953,1.5c2.295-.148,3.061-.043,14.942.625A36.827,36.827,0,0,1,82.966,123,151.516,151.516,0,0,1,63.9,137.854a7.782,7.782,0,0,0-1.194,12.184c5.012,4.762,16.22,10.237,34.966-6.6a.806.806,0,0,1,1.125.011c9.081,9.478,21.952,14.772,35.851,12.819,1.575,1.107-1.474-1.128,23.853,17.564h0a6.144,6.144,0,0,1,1.346,8.649,5.969,5.969,0,0,1-8.29,1.136c-3.555-2.624-.93-.627-13.429-10.257a3,3,0,1,0-3.663,4.753l10.37,7.99a6.033,6.033,0,0,1-.541,7.865,6.16,6.16,0,0,1-7.962.456c-2.378-1.755-.4-.251-11.309-8.649a3,3,0,0,0-3.661,4.755l9.195,7.079a6.022,6.022,0,0,1-.245,7.626,6.156,6.156,0,0,1-8.23.734c-4.138-3.054-2.061-1.477-10.031-7.645a3,3,0,1,0-3.673,4.745L114.754,208a5.991,5.991,0,0,1-.741,7.325,6.133,6.133,0,0,1-8.067.56l-4.033-2.976.926-1.088a10.931,10.931,0,0,0-9.527-17.936A10.923,10.923,0,0,0,81.507,183.6c-.1.008-.194.017-.291.028-.006-.1-.009-.192-.017-.288a10.849,10.849,0,0,0-2.581-6.2l-.027-.032a10.933,10.933,0,0,0-9.471-3.731,10.931,10.931,0,0,0-19.248-6.472l-4.521,5.307-2.643-1.858c-.041-.029-.082-.057-.125-.083l-13.315-8.4L46.736,117.6ZM6.011,155.98l20.513-52a.125.125,0,0,1,.163-.071l16.323,6.44a.125.125,0,0,1,.071.162l-20.514,52a.124.124,0,0,1-.162.07l-16.323-6.44a.124.124,0,0,1-.071-.162Z" transform="translate(0 -97.901)" fill="#23702a"/>
        </g>
      </g>
    </g>
    <g id="Group_85" data-name="Group 85">
      <text id="برامج_تكنولوجية" data-name="برامج تكنولوجية" transform="translate(5961 5866)" fill="#2a2a2a" font-size="28" font-family="Tajawal-Medium, Tajawal" font-weight="500"><tspan x="-91.294" y="0">برامج تكنولوجية</tspan></text>
      <text id="_55" data-name="+55" transform="translate(5961 5816)" fill="#2a2a2a" font-size="46" font-family="Tajawal-Bold, Tajawal" font-weight="700"><tspan x="-34.316" y="0">+55</tspan></text>
      <g id="Group_71" data-name="Group 71" transform="translate(5742 5560)">
        <g id="Group_67-3" data-name="Group 67">
          <g id="Path_150-4" data-name="Path 150" transform="translate(0 -33.159)" fill="none" stroke-linecap="round" stroke-linejoin="round">
            <path d="M436.323,218.173,331.921,37.756a9.657,9.657,0,0,0-8.684-4.6H114.426a9.657,9.657,0,0,0-8.684,4.6L1.339,218.381a9.854,9.854,0,0,0,0,9.922l104.4,180.823a10.017,10.017,0,0,0,8.684,5.008h208.81a10.067,10.067,0,0,0,8.684-5.06l104.4-180.852A10.085,10.085,0,0,0,436.323,218.173ZM317.451,394.082H120.212L21.6,223.649,120.212,53.21H317.45l98.611,170.438Z" stroke="none"/>
            <path d="M 114.4259338378906 33.15899658203125 C 110.8424987792969 33.15899658203125 107.5335083007812 34.65234375 105.7418518066406 37.75616455078125 L 1.339385986328125 218.38134765625 C -0.4471435546875 221.4851684570312 -0.4471435546875 225.1993408203125 1.339385986328125 228.3031616210938 L 105.7418518066406 409.1258239746094 C 107.5335693359375 412.2305297851562 110.8425598144531 414.1333312988281 114.4259338378906 414.1333312988281 L 323.2359619140625 414.1333312988281 C 326.8193969726562 414.1333312988281 330.1283264160156 412.1775207519531 331.9200439453125 409.0736389160156 L 436.3224487304688 228.221923828125 C 438.1107482910156 225.1181030273438 438.1107482910156 221.2766418457031 436.3233337402344 218.1728057861328 L 331.9208679199219 37.75616455078125 C 330.129150390625 34.65234375 326.8202209472656 33.15899658203125 323.23681640625 33.15899658203125 L 114.4259338378906 33.15899658203125 M 317.4505615234375 394.0820007324219 L 120.2120971679688 394.0820007324219 L 21.60098266601562 223.6486968994141 L 120.2120971679688 53.2103271484375 L 317.4497375488281 53.2103271484375 L 416.0608520507812 223.6486968994141 L 317.4505615234375 394.0820007324219 M 114.4259338378906 28.15899658203125 L 323.23681640625 28.15899658203125 C 325.8382568359375 28.15899658203125 328.3549194335938 28.73873901367188 330.5146789550781 29.8355712890625 C 332.9261169433594 31.06015014648438 334.9087829589844 32.93307495117188 336.2485046386719 35.25186157226562 L 440.6509704589844 215.6685180664062 C 440.6527404785156 215.6715240478516 440.6544494628906 215.6745758056641 440.6562194824219 215.6776275634766 C 443.3277587890625 220.3166351318359 443.3271484375 226.0798034667969 440.6548156738281 230.7180480957031 L 336.2502746582031 411.5733947753906 C 333.5585632324219 416.2365112304688 328.5717468261719 419.1333312988281 323.2359619140625 419.1333312988281 L 114.4259338378906 419.1333312988281 C 111.7916870117188 419.1333312988281 109.1947326660156 418.4392700195312 106.9158020019531 417.1260986328125 C 104.6322631835938 415.8103942871094 102.7288513183594 413.9081115722656 101.4112854003906 411.625 L -2.99066162109375 230.80322265625 C -2.991790771484375 230.8012847900391 -2.992889404296875 230.7993927001953 -2.9940185546875 230.7974548339844 C -4.306671142578125 228.5169219970703 -5.00048828125 225.9389343261719 -5.00048828125 223.3422241210938 C -5.00048828125 220.7455749511719 -4.306671142578125 218.1675720214844 -2.9940185546875 215.8870391845703 C -2.9925537109375 215.8844604492188 -2.99102783203125 215.8818054199219 -2.989501953125 215.8792266845703 L 101.4129638671875 35.25405883789062 C 102.7512817382812 32.93557739257812 104.7349243164062 31.06103515625 107.1479797363281 29.8355712890625 C 109.3078002929688 28.73873901367188 111.824462890625 28.15899658203125 114.4259338378906 28.15899658203125 Z M 314.5660705566406 58.2103271484375 L 123.0957641601562 58.2103271484375 L 27.3775634765625 223.6486206054688 L 123.0957641601562 389.0820007324219 L 314.56689453125 389.0820007324219 L 410.2843017578125 223.6486358642578 L 314.5660705566406 58.2103271484375 Z" stroke="none" fill="#23702a"/>
          </g>
        </g>
      </g>
      <g id="Group_83" data-name="Group 83" transform="translate(5897 5622)">
        <g id="Group_82" data-name="Group 82" transform="translate(1 1)">
          <path id="Path_165" data-name="Path 165" d="M47.6,17A30.6,30.6,0,1,0,78.2,47.6,30.636,30.636,0,0,0,47.6,17Zm0,57.123A26.522,26.522,0,1,1,74.123,47.6,26.552,26.552,0,0,1,47.6,74.123Z" transform="translate(15.642 15.642)" fill="#23702a"/>
          <path id="Path_166" data-name="Path 166" d="M49.481,33.241V31.2a10.2,10.2,0,0,0-20.4,0v2.04A4.084,4.084,0,0,0,25,37.321v20.4a4.084,4.084,0,0,0,4.08,4.08h20.4a4.084,4.084,0,0,0,4.08-4.08v-20.4A4.084,4.084,0,0,0,49.481,33.241ZM33.16,31.2a6.12,6.12,0,1,1,12.241,0v2.04H33.16ZM29.08,57.722v-20.4h20.4l0,20.4Z" transform="translate(23.963 19.802)" fill="#23702a"/>
          <path id="Path_167" data-name="Path 167" d="M35.12,30a6.106,6.106,0,0,0-2.04,11.865v4.456h4.08V41.865A6.106,6.106,0,0,0,35.12,30Zm0,8.16a2.04,2.04,0,1,1,2.04-2.04A2.042,2.042,0,0,1,35.12,38.16Z" transform="translate(28.123 29.163)" fill="#23702a"/>
          <path id="Path_168" data-name="Path 168" d="M49,17.241H65.321V5H49Zm4.08-8.16h8.16v4.08H53.08Z" transform="translate(48.926 3.16)" fill="#23702a"/>
          <path id="Path_169" data-name="Path 169" d="M5,65.4H21.321V45H5ZM9.08,49.08h8.16V61.321H9.08Z" transform="translate(3.16 44.765)" fill="#23702a"/>
          <path id="Path_170" data-name="Path 170" d="M7,57h8.16v4.08H7Z" transform="translate(5.241 57.247)" fill="#23702a"/>
          <path id="Path_171" data-name="Path 171" d="M121.367,82.6h-10.2V66.284H102.9c.037-.679.1-1.351.1-2.04s-.067-1.361-.1-2.04h8.265V39.762h11.221a5.1,5.1,0,0,0,4.08-8.16l-3.06-4.08V7.12A6.128,6.128,0,0,0,117.287,1h-20.4a6.128,6.128,0,0,0-6.12,6.12v20.4L87.7,31.6a5.061,5.061,0,0,0-.7,1.328,38.713,38.713,0,0,0-8.475-4.69V25.106a6.12,6.12,0,1,0-4.08,0v1.783a38.431,38.431,0,0,0-8.16-1.3V12.865a6.12,6.12,0,1,0-4.08,0v12.72a38.532,38.532,0,0,0-12.241,2.656V21.026a6.12,6.12,0,1,0-4.08,0v9.093a38.831,38.831,0,0,0-19.869,28H21.4V41.8h5.547a4.081,4.081,0,0,0,3.958-5.072l-.773-3.089H31.6a6.128,6.128,0,0,0,6.12-6.12V7.12A6.128,6.128,0,0,0,31.6,1H7.12A6.128,6.128,0,0,0,1,7.12v20.4a6.128,6.128,0,0,0,6.12,6.12H8.587l-.773,3.093a4.08,4.08,0,0,0,3.96,5.068h5.547V62.2h8.265c-.037.679-.1,1.351-.1,2.04s.067,1.361.1,2.04H17.321V82.6H7.12A6.128,6.128,0,0,0,1,88.725v32.642a6.128,6.128,0,0,0,6.12,6.12h20.4a6.128,6.128,0,0,0,6.12-6.12V88.725a5.949,5.949,0,0,0-.092-.9A39.018,39.018,0,0,0,45.883,98.369v9.093a6.12,6.12,0,1,0,4.08,0v-7.216A38.422,38.422,0,0,0,62.2,102.9v12.72a6.12,6.12,0,1,0,4.08,0V102.9a38.562,38.562,0,0,0,8.16-1.3v1.783a6.12,6.12,0,1,0,4.08,0v-3.136a38.9,38.9,0,0,0,16.413-12.42,5.95,5.95,0,0,0-.092.9v32.642a6.128,6.128,0,0,0,6.12,6.12h20.4a6.128,6.128,0,0,0,6.12-6.12V88.725A6.128,6.128,0,0,0,121.367,82.6ZM76.484,17.321a2.04,2.04,0,1,1-2.04,2.04A2.042,2.042,0,0,1,76.484,17.321Zm-28.562-4.08a2.04,2.04,0,1,1-2.04,2.04A2.042,2.042,0,0,1,47.923,13.241ZM7.12,5.08H31.6a2.042,2.042,0,0,1,2.04,2.04V21.4H5.08V7.12A2.042,2.042,0,0,1,7.12,5.08ZM5.08,27.522v-2.04H33.642v2.04a2.042,2.042,0,0,1-2.04,2.04H7.12A2.042,2.042,0,0,1,5.08,27.522Zm6.692,10.2,1.02-4.08H25.928l1.018,4.08Zm36.151,77.524a2.04,2.04,0,1,1,2.04-2.04A2.042,2.042,0,0,1,47.923,115.247Zm28.562-4.08a2.04,2.04,0,1,1,2.04-2.04A2.042,2.042,0,0,1,76.484,111.166Zm46.923-22.441v2.04H98.926v-2.04a2.042,2.042,0,0,1,2.04-2.04h20.4A2.042,2.042,0,0,1,123.407,88.725Zm-24.481,6.12h24.481v20.4H98.926Zm8.16-36.722h-4.613a38.578,38.578,0,0,0-8.211-18.361h12.824Zm-12.241-51a2.042,2.042,0,0,1,2.04-2.04h20.4a2.042,2.042,0,0,1,2.04,2.04V25.481H94.845ZM90.969,34.05l3.366-4.488h25.5l3.364,4.486a1.02,1.02,0,0,1-.814,1.634h-30.6a1.02,1.02,0,0,1-.816-1.632ZM64.244,5.08A2.04,2.04,0,1,1,62.2,7.12a2.042,2.042,0,0,1,2.04-2.04ZM29.562,121.367a2.042,2.042,0,0,1-2.04,2.04H7.12a2.042,2.042,0,0,1-2.04-2.04V88.725a2.042,2.042,0,0,1,2.04-2.04h20.4a2.042,2.042,0,0,1,2.04,2.04ZM27.522,82.6H21.4V70.364h4.613A38.449,38.449,0,0,0,30.645,83.49,6.066,6.066,0,0,0,27.522,82.6Zm36.722,40.8a2.04,2.04,0,1,1,2.04-2.04,2.042,2.042,0,0,1-2.04,2.04Zm0-24.481A34.682,34.682,0,1,1,98.926,64.244,34.721,34.721,0,0,1,64.244,98.926Zm38.23-28.562h4.613V82.6h-6.12a6.066,6.066,0,0,0-3.123.885,38.406,38.406,0,0,0,4.631-13.126Zm18.894,53.043h-20.4a2.042,2.042,0,0,1-2.04-2.04v-2.04h24.481v2.04A2.042,2.042,0,0,1,121.367,123.407Z" transform="translate(-1 -1)" fill="#23702a"/>
        </g>
      </g>
    </g>
    <rect id="Rectangle_92" data-name="Rectangle 92" width="20" height="67" transform="translate(5341.99 5716.229) rotate(30)" fill="#fff"/>
    <rect id="Rectangle_93" data-name="Rectangle 93" width="20" height="67" transform="translate(6195.694 5774.253) rotate(150)" fill="#fff"/>
    <rect id="Rectangle_94" data-name="Rectangle 94" width="20" height="67" transform="translate(5760.374 5716.229) rotate(30)" fill="#fff"/>
    <rect id="Rectangle_95" data-name="Rectangle 95" width="20" height="67" transform="translate(5777.311 5774.253) rotate(150)" fill="#fff"/>
    <rect id="Rectangle_96" data-name="Rectangle 96" width="20" height="67" transform="translate(6178.374 5716.229) rotate(30)" fill="#fff"/>
    <rect id="Rectangle_97" data-name="Rectangle 97" width="20" height="67" transform="translate(5359.311 5774.253) rotate(150)" fill="#fff"/>
  </g>
</svg>
