<svg id="logo-black" xmlns="http://www.w3.org/2000/svg" width="92.15" height="70" viewBox="0 0 92.15 70">
  <g id="logo" transform="translate(12.115 0.499)">
    <path id="Path_5" data-name="Path 5" d="M743,33v6.535h1.029V33Z" transform="translate(-709.657 -33)"/>
    <path id="Path_8" data-name="Path 8" d="M400.431,51c0,.248-.067.658.2.794,1.122.576,2.217.622,2.928,1.869.228.4.7,1.637.176,2-.164.113-.451.062-.639.062-.367,0-.724.053-1.089.061a2.464,2.464,0,0,0,.458-1.029c.509-3.242-5.961-2.753-4.9.484a2.195,2.195,0,0,0,.569.847,50.108,50.108,0,0,0-7.262,1.21,3.423,3.423,0,0,0-3.147-2.894,6.144,6.144,0,0,0-1.694.127c-.169.032-.493.056-.6.21-.122.174.06.507.117.682,1.385-.318,2.819-.472,3.765.847a6.783,6.783,0,0,1,.592,1.271,22.909,22.909,0,0,0-4.9,1.331c.044.192.1.61.319.678.282.088.856-.208,1.133-.295.938-.293,1.891-.546,2.844-.785A71.5,71.5,0,0,1,399.765,56.7c1.061-.1,2.141-.191,3.207-.192a5.022,5.022,0,0,0,1.668-.1c.186-.093.193-.391.222-.569a4.573,4.573,0,0,0-.041-1.694c-.431-1.924-2.527-3.067-4.392-3.147m17.67.3-.121.908,1.089.182.121-.908L418.1,51.3m-4.781,5.023c-.186,1.043-1.079,1.291-2,1.271l-.061.726a2.724,2.724,0,0,0,2.762-.968,4.831,4.831,0,0,0,.471-1.876,3.513,3.513,0,0,0-.106-2.118,3.04,3.04,0,0,0-3.308-1.23,2.2,2.2,0,0,0-1.243,3.585,3.177,3.177,0,0,0,3.482.611m10.348-4.236c-.277,1.34-.674,2.666-1.006,3.994-.134.538-.281,1.176-.87,1.377a2.47,2.47,0,0,1-1.331-.144,14.365,14.365,0,0,0-2.239-.446l.508-2.784.094-.992-.966-.218c-.178.946-.341,1.9-.5,2.844a5.023,5.023,0,0,1-.373,1.573,1.649,1.649,0,0,1-1.911.726l-.121.787c1.094,0,2.606.03,3.086-1.21a17.452,17.452,0,0,0,3.449.729,1.924,1.924,0,0,0,1.331-.224,2.788,2.788,0,0,0,.865-1.716c.376-1.326.7-2.667,1.072-3.994Z" transform="translate(-373.321 -49.911)"/>
    <path id="Path_10" data-name="Path 10" d="M1041,89.643l.968.3,2-6.293c-.221-.1-.825-.388-1.047-.238-.333.225-.442,1.255-.552,1.63C1041.917,86.579,1041.437,88.1,1041,89.643Z" transform="translate(-989.624 -80.324)"/>
    <path id="Path_12" data-name="Path 12" d="M728,213l.061.726h.908l-.06-.726Z" transform="translate(-695.565 -202.108)"/>
    <path id="Path_14" data-name="Path 14" d="M499.912,214l.06,2.784-.908-.061a3.138,3.138,0,0,0-.149-1.15c-.426-.841-1.748-.605-2.514-.605l.061.726c.99,0,1.694-.173,1.694,1.029-.588,0-1.168.061-1.755.061-.205,0-.527.058-.707-.062-.238-.159-.181-.715-.361-.966-.473-.66-1.3-.606-2.018-.606l.061.726c.737-.052,1.3.142,1.331.968l-1.755.121.061.726,7.867-.182-.06-3.51h-.908m1.513.061v3.449l.847.061.061-2.542-.062-.871-.846-.1m-13.676.787.666,3.449,1.815-.242.061.484a5.983,5.983,0,0,0,1.634-.335c.932-.536.309-2.089.242-2.933-.789.062-2.284.081-2.226,1.21a3.534,3.534,0,0,0,.169.847l-.968.121-.484-2.723-.908.121m17.791,3.086c-.226.439-1.046.218-1.452.121l-.06.726c.589.046,1.451.322,1.994-.005a1.021,1.021,0,0,0,.4-.842c.106-.776.146-1.579.207-2.36-.648-.051-1.528-.341-2.115.059a1.366,1.366,0,0,0,0,1.925,2.088,2.088,0,0,0,1.026.377m-19.062-1.815.424,1.755c-.762.2-1.536.346-2.3.537a2.9,2.9,0,0,1-1.088.228c-.583-.122-.29-.986-.7-1.245-.2-.127-.6.073-.816.117a2.872,2.872,0,0,0,.668,1.669c.778.622,2.421-.145,3.265-.345.4-.095,1.625-.133,1.873-.461.124-.165-.01-.5-.051-.682-.129-.563-.26-1.127-.37-1.694Z" transform="translate(-464.451 -203.047)"/>
    <path id="Path_16" data-name="Path 16" d="M265.347,249c0,.561-.292,1.3.005,1.815.326.566,1,.626,1.568.752,1.2.263,2.39.549,3.57.882l.356-1.694.064-.682-.843-.226-.3,1.694a15.871,15.871,0,0,0-2.36-.592,2.819,2.819,0,0,1-1.08-.3c-.485-.369.162-1.039-.133-1.424-.139-.182-.631-.185-.845-.226m1.815.121-.121.666c.654.184.935.256,1.029-.484l-.908-.182m-25.355.968.908-.182c-.08-.387-.559-1.067-.961-.448-.1.154.031.461.053.63m29.954-.847-.726,3.389a23.353,23.353,0,0,1,4.9,1.634,8.869,8.869,0,0,0,2.118.787l.726-2.3-.847-.3-.545,1.634-.787-.3c.086-.3.407-.89.315-1.2-.064-.217-.631-.447-.809-.277a2.575,2.575,0,0,0-.354,1.111l-.847-.3.242-.847-.847-.3-.242.847-2-.605.605-2.723-.908-.242m-3.449.121-.061.726.847.182.121-.726-.908-.182m-27.776.3.182.726.847-.182-.182-.726-.847.182m-4.72.363.829,2.421.364.843.8-.177-1.089-3.328-.908.242m-1.392.545.968,2.663-.666.242c-.1-.308-.351-1.365-.682-1.465-.227-.069-.577.152-.77.255l.605,1.573-.908.363.3.666,3.207-1.271a11.977,11.977,0,0,0-1.21-3.328l-.847.3m-.3,1.089-.06-.3-.605.182-.061-.242.363-.121-.06-.3c-.4.1-.7.28-.715.726,0,.124-.019.327.129.376.266.088.755-.229,1.009-.315m44.417,3.691c.2.077.61.349.817.234.188-.1.251-.473.321-.658q.321-.846.636-1.694c.07-.189.256-.5.18-.7s-.637-.452-.815-.287a2.407,2.407,0,0,0-.353.869l-.323.908a13.828,13.828,0,0,0-.464,1.331m-48.229.121-.787.363-.787-1.573-.847.424c.149.358.829,1.177.7,1.56-.075.225-.513.373-.7.5-.111-.3-.56-1.471-.914-1.5-.227-.017-.532.237-.72.348l.847,1.634-1.452.787c-.141-.328-.512-1.246-.86-1.376-.312-.116-.734.447-.894.65a2.789,2.789,0,0,0-.364,3.026l.787-.484a2.77,2.77,0,0,1,.061-2h.121l.726,1.271,1.936-1.089,3.51-1.936.182.424a4.3,4.3,0,0,0,.787-.318,2.779,2.779,0,0,0,.6-.368c.96-.84-.158-2.091-.421-3.006-.808.139-1.922.694-1.873,1.634a4.717,4.717,0,0,0,.36,1.029m-2.6-1.089.847-.363-.3-.666C227.578,253.555,227.445,253.772,227.708,254.386Z" transform="translate(-221.354 -235.929)"/>
    <path id="Path_18" data-name="Path 18" d="M269.806,331l-.678,1.694-.414.653-.6-.108c-.126.532-.182.814.484.9a1.413,1.413,0,0,0,.784-.077c.163-.085.3-.331.5-.295a4.728,4.728,0,0,1,1.253.625c.683.388,1.38.752,2.057,1.15.695.408,1.377.835,2.057,1.267.211.134.582.479.841.469.3-.012.585-.782.715-1.01.218-.385,1.031-1.367.935-1.81-.062-.285-.553-.473-.8-.55l-1.21,2.36-.847-.484c.357-.857,1.961-2.6.363-2.9l-1.15,2.36c-.208-.127-.684-.293-.746-.551-.1-.4.35-.8.228-1.264-.194-.739-1.378-1.387-2.084-1.513l-.132.533,1.277.925-.238.9-2.36-1.21.605-1.694-.847-.363m-57.851,2.118.3.666a1.482,1.482,0,0,0,.721-.456.458.458,0,0,0-.3-.566c-.226-.021-.526.253-.72.356m-.726,1.331.847-.484c-.078-.167-.185-.46-.376-.526-.211-.074-.684.256-.712.471-.024.182.158.389.241.539m4.9.666c.227.717.551.529,1.089.242l-.3-.666Z" transform="translate(-209.837 -312.967)"/>
    <path id="Path_21" data-name="Path 21" d="M224,427v.545h.242Z" transform="translate(-222.064 -403.158)"/>
    <path id="Path_81" data-name="Path 81" d="M192,492.567c.833.464.892-.854,1.472-1.157.224-.117.647.206.888.249l.3-.545-.787-.363c.174-.259.387-.771.677-.908.512-.242.9.623,1.2-.3l-1.2-.545-.712.847Z" transform="translate(-192 -461.403)"/>
    <path id="Path_89" data-name="Path 89" d="M1232.975,502.392c-1.438.013-.549,2.532.073,3.133a.6.6,0,0,0,1.016-.228l.121.121.363-.121a19.015,19.015,0,0,0-1.634-4.3C1232.286,501.193,1232.781,501.976,1232.975,502.392Z" transform="translate(-1169.254 -472.68)"/>
    <path id="Path_93" data-name="Path 93" d="M1270.863,506.559l-.484.242c.468,1.071,1.837.9,1.614-.363a1.074,1.074,0,0,0-.767-.875c-.251-.061-.557.013-.761-.184-.328-.319.095-.658.4-.271.807-.148.063-1-.484-.884-.8.175-.655,1.449-.059,1.783.319.179.8.028,1.048.328C1271.693,506.728,1271.133,507.062,1270.863,506.559Z" transform="translate(-1204.6 -475.697)"/>
    <path id="Path_108" data-name="Path 108" d="M235.759,524.014c-.692.181-1.45,1.418-1.6,2.084-.146.64.4,1.032,1,.882.693-.172,1.4-1.436,1.542-2.093A.708.708,0,0,0,235.759,524.014Z" transform="translate(-231.584 -494.268)"/>
    <path id="Path_110" data-name="Path 110" d="M326.58,537.94h-.061l-.061-.242-.363.121,1.029,3.207c1.181-.417-1.215-2.729.242-3.026-.1-.674-.7-.843-.787-.061M270,540.36l.484.182a9.237,9.237,0,0,1,1.112-1.875c.257-.311.528-.431.824-.122h.061c.361-.619.173-.926-.545-.726.032-.208-.114-.412-.325-.217a4.049,4.049,0,0,0-.547.883A11.83,11.83,0,0,0,270,540.36m4.539.424-.545-.121a1.659,1.659,0,0,0-.112,1.029c.312.8,1.32.477,1.707-.061a1.6,1.6,0,0,0,.222-1.452c-.108-.3-.382-.633-.325-.968.11-.653.853-.6.626.121l.484.182a1.341,1.341,0,0,0,.093-1.144c-.312-.562-1.13-.281-1.439.117a1.59,1.59,0,0,0-.282,1.45c.11.334.409.724.3,1.089-.225.778-.935.524-.733-.242m49.439-1.029c.48-.17.787-1.064,1.029-.061a1.186,1.186,0,0,0-.411,2.023.582.582,0,0,0,.956-.268l.484.061a5.823,5.823,0,0,0-.98-2.9c-.778-.759-1.267.5-1.078,1.141m-3.449,1.089-.847.242.06.666.484-.121c.035.181.08.362.1.545.045.355-.228,1.011-.617.537a5.6,5.6,0,0,1-.539-2.171c-.04-.229-.066-.537.158-.686.289-.193.6.456,1.015.384-.039-.769-1.067-1.772-1.578-.725-.4.823.088,2.568.391,3.388.265.717,1.229,1,1.588.181a3.456,3.456,0,0,0-.22-2.239m1.755-1.573c.088.653.324,1.3.476,1.937.054.227.146.583-.071.758-.254.205-.4-.217-.456-.4a14.751,14.751,0,0,1-.494-2.057l-.484.121c.2.954.53,4.053,1.936,2.723v.181h.061l.3-.121a15.4,15.4,0,0,0-.847-3.268l-.424.121m-44.114,2.965-.484-.121c-.486.646-.616-.02-.484-.484l1.089.363a2.737,2.737,0,0,0,.478-1.573.7.7,0,0,0-1.083-.439,3.2,3.2,0,0,0-.95,1.468,1.544,1.544,0,0,0-.181,1.268C276.973,543.526,277.981,542.826,278.169,542.236Z" transform="translate(-265.28 -506.896)"/>
    <path id="Path_112" data-name="Path 112" d="M511.678,586.581c-.347.168-.283.921.16.658C512.112,587.077,512.067,586.393,511.678,586.581Z" transform="translate(-492.125 -553.051)"/>
    <path id="Path_114" data-name="Path 114" d="M416.271,588,415,591.086l.484.121c.273-.584.811-2.852,1.694-2.239l.242-.726-.847.06.06-.242-.363-.06m31.486.368c-.29.164-.118.963.253.718.269-.177.1-.918-.253-.718m-29.671.116-.408,2.3-.1.882.506.208,1.694-2.965c-.749-.278-1.379,1.262-1.573,1.876-.057-.643.811-2.17-.121-2.3m31.225.121c0,.308.111.677-.242.787l.06.605.3-.061a6.483,6.483,0,0,0,.344,2.3c.118.223.575.563.8.267.111-.144.022-.406,0-.569-.613-.047-.758-1.362-.644-1.872.084-.379.318-.382.281-.851l-.424.06-.06-.726-.424.06m2.784,2.057h-.061l-.605-1.755-.484.121c.218.918.708,1.772,1.014,2.663a.9.9,0,0,1-.349,1.15l.061.666c.733-.154.747-.683.792-1.331.082-1.183.176-2.384.176-3.57-.733.154-.545,1.418-.545,2.057m-31.527-1.573-1.029,3.147.484.121,1.029-3.207-.484-.06m2.481,2.663-.484-.121c-.084.191-.52.788-.654.3-.095-.349.3-1.7.712-1.753.206-.028.336.58.668.67.486-1.434-1.065-1.814-1.528-.424-.188.566-.59,1.4-.354,2,.414,1.049,1.457-.128,1.64-.665m8.9,1.815H432c.062.383.246.422.605.424l-.207-.908.328-.908-.484-.061-.121.3a1.6,1.6,0,0,1-.166-.666c.094-.6.668-.934.571-1.634a.6.6,0,0,0-1.165-.181c-.28.527.019,1.054-.112,1.573-.146.581-.632.908-.64,1.573-.01.783.868,1.268,1.33.484m3.752-.787h-.484a1.608,1.608,0,0,0,.221,1.076c.534.644,1.343.012,1.516-.592a1.616,1.616,0,0,0-.226-1.451c-.228-.3-.608-.523-.7-.909-.15-.648.575-.778.64-.06h.484a1.472,1.472,0,0,0-.276-1.055c-.512-.5-1.163.034-1.312.571a1.6,1.6,0,0,0,.228,1.452c.233.3.644.559.685.968.075.756-.715.755-.778,0m12.042-3.147.242,3.389.447-.2-.026-.828-.24-2.421-.424.06m-1.634.605h-.06v-.3l-.363.061.181,3.328.484-.061a13.474,13.474,0,0,1-.115-2.179c.034-.392.266-.657.66-.544l-.061-.726c-.358,0-.6.061-.726.424m-20.575,2-.484-.06c-.323.717-.91.073-.51-.261.218-.182.858.031,1.116.079.073-.542.372-1.15.166-1.693a.707.707,0,0,0-1.174-.169,3.94,3.94,0,0,0-.728,1.983C423.709,593.533,425.337,593.517,425.529,592.236Z" transform="translate(-401.505 -554.415)"/>
    <path id="Path_116" data-name="Path 116" d="M621.135,624c0,.7.107,1.422.055,2.118-.014.186-.07.58-.306.618-.3.049-.287-.444-.3-.618a19.947,19.947,0,0,1-.05-2h-.484a11.017,11.017,0,0,0,.132,2.844.559.559,0,0,0,1.079.121h.061v.242h.363L621.559,624h-.424m-17.246,2.239-.484-.061a1.333,1.333,0,0,0,.105.962c.354.5,1.128.234,1.352-.236a1.158,1.158,0,0,0-.079-1.268c-.156-.181-.486-.345-.512-.608-.049-.505.5-.332.526.121.694-.008.586-.968,0-1.075a1.01,1.01,0,0,0-.959,1.5c.154.276.583.439.644.762.093.49-.573.471-.592-.1m15.249.182h-.484c-.048.531-.6.817-.637.121a3.8,3.8,0,0,1,.086-1.33c.193-.481.516-.076.551.241h.484a1.628,1.628,0,0,0-.233-.955c-.648-.824-1.324.346-1.339.955-.014.545-.179,1.532.163,1.99C618.421,628.373,619.111,627.037,619.138,626.42Z" transform="translate(-578.473 -588.236)"/>
    <path id="Path_118" data-name="Path 118" d="M795.982,631.99H795.5c-.165.817-.907.145-.518-.206.217-.195.73-.1,1-.1a2.468,2.468,0,0,0-.16-1.748c-.843-1.083-1.35.774-1.4,1.325-.044.465-.144,1.31.2,1.68C795.276,633.663,795.956,632.593,795.982,631.99Z" transform="translate(-757.919 -593.503)"/>
    <path id="Path_120" data-name="Path 120" d="M395.481,688,393,692.6c.717.233,1.036.271,1.271-.545l.908.242c-.226.764-.007,1.085.787,1.15l.424-5.2-.908-.242m38.91,5.991c.71-.2,1.9-.26,2.4-.853.64-.76-.31-2.616-.546-3.444a1.65,1.65,0,0,0-.525-1.02c-.563-.381-1.287-.034-1.87.119-.178.047-.542.067-.627.261-.138.316.192.986.272,1.305.3,1.207.648,2.412.9,3.631m-34.916-4.9-1.21,5.023,2.239.484.181-.786-1.271-.242.908-4.3Z" transform="translate(-380.837 -648.364)"/>
    <path id="Path_122" data-name="Path 122" d="M984,713.424l.908,5.083,1.694-.339.6-.19-.058-.742-1.452.3-.242-1.452,1.15-.181-.121-.787c-.312.013-.782.231-1.075.135s-.341-.949-.377-1.224l1.331-.242-.121-.787Z" transform="translate(-936.073 -671.851)"/>
    <path id="Path_124" data-name="Path 124" d="M552.908,722.551l1.331.182c-.559.783-1,1.664-1.516,2.481a3.338,3.338,0,0,0-.723,1.573l1.876.319.681.04.166-.722-1.513-.242c.578-.941,1.153-1.886,1.7-2.844.158-.276.545-.782.378-1.123-.117-.24-.7-.216-.931-.253-.8-.13-1.408-.441-1.452.59M575,722.188l.3,2.057-1.029.121-.242-2-.847.061.545,5.144.908-.121-.242-2.3,1.029-.121.3,2.239.908-.06-.726-5.144-.908.121m-16.823.3-1.573,4.962c.746.223,1.037.039,1.15-.726l.908.06.061.908.908.06-.545-5.2-.908-.06m10.106,5.446h.968c0-.417.286-1.51.924-.871.162.163.181.533.226.75l.968-.06c-.388-1.213-.726-2.456-1.036-3.691-.072-.288-.16-1.154-.442-1.295-.759-.379-.863.421-.934.932-.2,1.415-.494,2.82-.674,4.236m-6.233-5.144a34.493,34.493,0,0,0,.433,3.933c.061.507-.042,1.2.6,1.21V728h2.421a30.367,30.367,0,0,0,.787-5.144h-.847l-.424,2.9h-.121l-.363-2.9H563.8l-.484,2.965h-.06l-.363-3.026Z" transform="translate(-530.215 -680.131)"/>
    <g id="Group_1" data-name="Group 1" transform="translate(3.169 2.832)">
      <path id="Path_9" data-name="Path 9" d="M804.96,79.845c-2.06.44-1.132,3.5.847,3.075C807.961,82.46,807.023,79.4,804.96,79.845Z" transform="translate(-769.945 -79.801)" fill="#fff"/>
      <path id="Path_11" data-name="Path 11" d="M399.886,87.179a1.7,1.7,0,0,0-1.009.418c-1.018,1.022.16,2.436,1.372,2.261a1.352,1.352,0,0,0-.363-2.679m13.434,3.06.061.061-.061-.061M385,92.962v.605h.242Z" transform="translate(-376.49 -86.717)" fill="#fff"/>
      <path id="Path_15" data-name="Path 15" d="M628.565,249.634c.875-.048.388-1.062.363-1.634-.85.179-.414.995-.363,1.634m14.584-.484a4.248,4.248,0,0,1,.026-.545c.151-1.167-1.169.02-.382.473A.765.765,0,0,0,643.149,249.15Z" transform="translate(-605.169 -237.822)" fill="#fff"/>
      <path id="Path_17" data-name="Path 17" d="M349.4,330.634c.764-.263.152-1.166-.121-1.634C348.485,329.274,349.2,330.139,349.4,330.634Z" transform="translate(-342.586 -313.92)" fill="#fff"/>
      <path id="Path_19" data-name="Path 19" d="M1289.392,395,1288,397.481h1.452A7.535,7.535,0,0,0,1289.392,395Z" transform="translate(-1224.846 -375.926)" fill="#fff"/>
      <path id="Path_109" data-name="Path 109" d="M245.434,533.846c-.416.085-.892.965-1.029,1.333-.079.211-.053.515.244.489.451-.039.905-.963,1.056-1.336.086-.213.044-.55-.271-.486m59.329.065c-.372.236.193,1.4.346,1.689.084.158.257.359.457.24.408-.242-.166-1.467-.349-1.747C305.124,533.951,304.939,533.8,304.763,533.911Z" transform="translate(-244.367 -506.363)" fill="#fff"/>
      <path id="Path_111" data-name="Path 111" d="M1174.474,584.777c-.45.116-.344,1.045.111.921C1174.958,585.6,1174.856,584.679,1174.474,584.777Z" transform="translate(-1117.919 -554.212)" fill="#fff"/>
      <path id="Path_113" data-name="Path 113" d="M393,588.632l.666.182a1.569,1.569,0,0,0,.144-.6C393.7,587.537,393.084,588.432,393,588.632Z" transform="translate(-384.006 -557.213)" fill="#fff"/>
      <path id="Path_115" data-name="Path 115" d="M690.153,624.66c.169-.133.6-.7.267-.9-.263-.153-.327.4-.321.534A2.627,2.627,0,0,0,690.153,624.66Z" transform="translate(-663.125 -590.821)" fill="#fff"/>
      <path id="Path_117" data-name="Path 117" d="M574,632.4l.666.121C574.86,631.578,574.282,631.534,574,632.4Z" transform="translate(-554.053 -598.378)" fill="#fff"/>
      <path id="Path_119" data-name="Path 119" d="M688.6,644.441l.666-.06c0-1-.627-.842-.666.06m-7.02,0c-.134.2-.679,1.172-.058,1.172.6,0,.215-.923.058-1.172m9.561.424v.3h.061Z" transform="translate(-654.792 -609.573)" fill="#fff"/>
      <path id="Path_121" data-name="Path 121" d="M1074,710.8l.908,3.449c.277-.057.693-.095.845-.37.131-.236,0-.544-.067-.78-.16-.565-.313-1.131-.476-1.694-.066-.226-.107-.535-.316-.679C1074.652,710.561,1074.258,710.749,1074,710.8Z" transform="translate(-1023.796 -672.485)" fill="#fff"/>
      <path id="Path_123" data-name="Path 123" d="M420.847,714,420,715.755l.666.181Z" transform="translate(-409.372 -675.622)" fill="#fff"/>
      <path id="Path_125" data-name="Path 125" d="M651.424,760,651,761.815l.605.06A4.138,4.138,0,0,0,651.424,760Z" transform="translate(-626.393 -718.839)" fill="#fff"/>
      <path id="Path_126" data-name="Path 126" d="M749.051,764l-.182,1.815h.363a3.956,3.956,0,0,0-.182-1.815m-5.507.787L743,767.631h1.029Z" transform="translate(-712.826 -722.597)" fill="#fff"/>
    </g>
    <path id="Path_127" data-name="Path 127" d="M846,777v1.029h.242Z" transform="translate(-806.424 -731.978)"/>
  </g>
  <g id="logo_1">
    <path id="Path_1" data-name="Path 1" d="M32.058-1145.542c-.5.156-1.533.45-2.278.657a33.854,33.854,0,0,0-9.388,4.048A32.547,32.547,0,0,0,9-1128.622a25.822,25.822,0,0,0-2.37,8.354,35.651,35.651,0,0,0-.006,5.675,23.881,23.881,0,0,0,4.2,11.407,37.187,37.187,0,0,0,5.522,6.645c3.964,3.6,9.677,7.3,17.193,11.138.985.5,1.8.92,1.81.932.049.044-.271.482-.554.738a2.468,2.468,0,0,1-1.256.582,2.874,2.874,0,0,1-1.379-.307c-1.09-.451-1.687-.094-1.693,1.013a1.58,1.58,0,0,0,.456,1.277,1.409,1.409,0,0,0,1.2.325c1.336-.113,2.524-.751,4.42-2.365.874-.738.942-.77,1.662-.726a4.569,4.569,0,0,1,3.4,3.148,2.255,2.255,0,0,1,.111,1.188c-.117,1.646-.043,2.009.536,2.628a2.443,2.443,0,0,0,1.847.845,2.857,2.857,0,0,0,2.684-3.047,5.592,5.592,0,0,0-2.475-3.8c-.271-.213-1.1-.8-1.847-1.295-1.582-1.058-2.013-1.4-2.253-1.79-.394-.638-.172-1.076.831-1.646a3.26,3.26,0,0,0,1.317-1.045,1.938,1.938,0,0,0-.326-2.065,1.513,1.513,0,0,0-.874-.488.413.413,0,0,0-.425.119c-.179.156-.179.163-.209,1.033l-.031.876-.246.357a2.589,2.589,0,0,1-2.4,1.283c-.252-.087-2.844-1.483-5.017-2.7a87.1,87.1,0,0,1-9.425-5.982,67.866,67.866,0,0,1-6.525-5.763,21.544,21.544,0,0,1-3-3.579,24.7,24.7,0,0,1-3.552-10.1,24.416,24.416,0,0,1-.006-4.449c.8-6.576,4.574-12.915,10.877-18.259a47.931,47.931,0,0,1,10.4-6.639c1.533-.72,1.514-.713,1.447-.707C33.013-1145.817,32.569-1145.692,32.058-1145.542Z" transform="translate(-6.512 1145.818)" fill="#2a5e29"/>
    <path id="Path_2" data-name="Path 2" d="M863.288-1140.672c.1.056.7.338,1.323.632,7.381,3.479,13.475,8.51,17.2,14.2a26.708,26.708,0,0,1,2.77,5.369,20.6,20.6,0,0,1,1.41,7.521,22.276,22.276,0,0,1-1.416,7.759,20.776,20.776,0,0,1-3.256,6.007,55.133,55.133,0,0,1-4.358,4.449,58.057,58.057,0,0,1-9.609,7.14c-2.549,1.558-8.4,4.825-8.988,5.025a2.59,2.59,0,0,1-2.4-1.283l-.246-.357-.031-.876c-.031-.87-.031-.876-.209-1.033a.414.414,0,0,0-.425-.119,1.775,1.775,0,0,0-1.367,1.821c0,.758.277,1.083,1.484,1.777,1.016.576,1.231,1.02.819,1.658-.265.4-.665.72-2.241,1.777-2.444,1.633-3.324,2.459-3.921,3.673a3.556,3.556,0,0,0-.24,2.616,2.728,2.728,0,0,0,3.213,1.758,2.44,2.44,0,0,0,1.157-.745c.579-.619.653-.982.536-2.628a2.256,2.256,0,0,1,.111-1.189,4.569,4.569,0,0,1,3.4-3.147c.708-.044.794-.013,1.57.651,1.914,1.646,3.17,2.328,4.512,2.44a1.409,1.409,0,0,0,1.2-.325,1.58,1.58,0,0,0,.456-1.276c-.006-1.108-.6-1.464-1.693-1.014a2.873,2.873,0,0,1-1.379.306,2.462,2.462,0,0,1-1.256-.582c-.283-.257-.6-.695-.554-.738.012-.012.831-.432,1.81-.932a93.088,93.088,0,0,0,13.666-8.26,33.346,33.346,0,0,0,6.525-6.082,32.9,32.9,0,0,0,5.6-9.511,29.313,29.313,0,0,0,1.157-5.6,38.738,38.738,0,0,0-.037-5.412,25.717,25.717,0,0,0-2.37-8.354,32.278,32.278,0,0,0-10.163-11.4,33.278,33.278,0,0,0-9.769-4.618c-.5-.144-1.6-.457-2.45-.7s-1.582-.45-1.631-.469S863.19-1140.722,863.288-1140.672Z" transform="translate(-797.544 1141.056)" fill="#2a5e29"/>
    <path id="Path_3" data-name="Path 3" d="M593.24-803.8a28.013,28.013,0,0,0-4.155.591l-.585.142,1.077.043a26.576,26.576,0,0,1,6.895,1.194c.492.148,1.847.616,3.016,1.034,2.542.9,3.6,1.25,4.826,1.57a20.822,20.822,0,0,0,5.916.757,11.467,11.467,0,0,0,5.079-.837,12.771,12.771,0,0,0,4.247-2.869c.425-.419.7-.72.616-.671s-.351.222-.591.376a13.785,13.785,0,0,1-8.323,2.191,24.059,24.059,0,0,1-6.144-1.4,50.266,50.266,0,0,0-7.393-1.884A21.6,21.6,0,0,0,593.24-803.8Z" transform="translate(-552.674 825.259)" fill="#2a5e29"/>
  </g>
  <g id="Group_2" data-name="Group 2" transform="translate(30.267 25.521)">
    <path id="Path_128" data-name="Path 128" d="M292.44,390.814a10.554,10.554,0,0,1,2.847.321,26.015,26.015,0,0,1,2.8.823.894.894,0,0,0,.158.282,4.187,4.187,0,0,1,.71,1.945,4.4,4.4,0,0,1-1.748,4.054,4.453,4.453,0,0,1-5.59-6.928A1.735,1.735,0,0,1,292.44,390.814Zm1.82.74a2.86,2.86,0,1,0,2.853,2.873A2.852,2.852,0,0,0,294.26,391.555Z" transform="translate(-290.07 -390.806)" fill="#2a5e29"/>
    <path id="Path_129" data-name="Path 129" d="M298.726,394.082a2.86,2.86,0,1,1-2.867,2.833A2.852,2.852,0,0,1,298.726,394.082Zm-.688,1.689a.871.871,0,1,0,.872.884A.873.873,0,0,0,298.039,395.771Z" transform="translate(-294.537 -393.333)" fill="#1f2017"/>
    <path id="Path_130" data-name="Path 130" d="M302.453,401.474a.871.871,0,1,1-.871.858A.872.872,0,0,1,302.453,401.474Z" transform="translate(-298.951 -399.036)" fill="#fff"/>
  </g>
  <path id="Path_131" data-name="Path 131" d="M601.4,295.846s-5.223,2.21-15.027-1.808a13.13,13.13,0,0,0-13.9,1s3.295-6.148,13.5-3.616c3.776.937,6.468,2.048,8.96,2.772C598.923,295.36,601.4,295.846,601.4,295.846Z" transform="translate(-547.38 -266.811)"/>
</svg>
