<svg xmlns="http://www.w3.org/2000/svg" width="17" height="11.953" viewBox="0 0 17 11.953">
  <g id="Group_20" data-name="Group 20" transform="translate(0 -76)">
    <g id="Group_13" data-name="Group 13" transform="translate(0.871 82.682)">
      <g id="Group_12" data-name="Group 12">
        <path id="Path_133" data-name="Path 133" d="M36.371,277.251l-1.424,1.429a1.576,1.576,0,0,1-2.183,0l-1.424-1.429-5.114,5.13a1.479,1.479,0,0,0,.623.141H40.861a1.478,1.478,0,0,0,.623-.141Z" transform="translate(-26.226 -277.251)" fill="#23702a"/>
      </g>
    </g>
    <g id="Group_15" data-name="Group 15" transform="translate(0.871 76)">
      <g id="Group_14" data-name="Group 14">
        <path id="Path_134" data-name="Path 134" d="M40.863,76H26.851a1.479,1.479,0,0,0-.623.141l5.464,5.483h0l1.777,1.783a.6.6,0,0,0,.773,0l1.776-1.782h0l5.464-5.483A1.478,1.478,0,0,0,40.863,76Z" transform="translate(-26.228 -76)" fill="#23702a"/>
      </g>
    </g>
    <g id="Group_17" data-name="Group 17" transform="translate(0 76.837)">
      <g id="Group_16" data-name="Group 16">
        <path id="Path_135" data-name="Path 135" d="M.159,101.212a1.476,1.476,0,0,0-.159.657v8.965a1.475,1.475,0,0,0,.159.657l5.123-5.139Z" transform="translate(0 -101.212)" fill="#23702a"/>
      </g>
    </g>
    <g id="Group_19" data-name="Group 19" transform="translate(11.718 76.837)">
      <g id="Group_18" data-name="Group 18">
        <path id="Path_136" data-name="Path 136" d="M358.056,101.21l-5.123,5.14,5.123,5.139a1.476,1.476,0,0,0,.159-.657v-8.965A1.476,1.476,0,0,0,358.056,101.21Z" transform="translate(-352.933 -101.21)" fill="#23702a"/>
      </g>
    </g>
  </g>
</svg>
