<svg xmlns="http://www.w3.org/2000/svg" width="58" height="70.816" viewBox="0 0 58 70.816">
  <g id="Group_28" data-name="Group 28" transform="translate(-87.998 -44.45)">
    <path id="Path_140" data-name="Path 140" d="M135.649,97.168a1.91,1.91,0,0,1-1.3.507,1.983,1.983,0,0,1-1.287-.489,1.931,1.931,0,0,1-2.592,0l-1.278,1.278a2.4,2.4,0,0,1,.517,1.16c0,1.033-.381,1.033-.381,2.32,0,3.217,3.734,4.259,3.734,4.259s3.743-1.042,3.743-4.259h.009c0-1.287-.39-1.287-.39-2.32a2.5,2.5,0,0,1,.517-1.16ZM117,91.7l-3.625,3.625.906,3.625h5.437l.906-3.625Zm-9.742-3.942,2.266,7.712a.444.444,0,0,0,.752.172L117,88.985l6.742,6.679a.435.435,0,0,0,.743-.154l2.574-7.739a7.6,7.6,0,0,1,1.9.308A39.541,39.541,0,0,1,143.1,94.967a7.566,7.566,0,0,1,2.9,5.8v14.5H120.623l-.97-14.5h-5.274l-1.006,14.5H88v-14.5a7.566,7.566,0,0,1,2.9-5.8,46.633,46.633,0,0,1,14.137-6.888,9.381,9.381,0,0,1,2.22-.317Zm-4.468-21.65a25.731,25.731,0,0,0,28.486.451,14.874,14.874,0,0,1,.224,2.484,14.5,14.5,0,1,1-28.71-2.936Zm12.4-15.144L114,52.1a2.145,2.145,0,0,1,.453,1.024c0,.906-.335.906-.335,2.048,0,2.846,3.3,3.752,3.3,3.752s3.3-.915,3.3-3.752h.036c0-1.142-.335-1.142-.353-2.048a2.192,2.192,0,0,1,.453-1.024l-1.133-1.133a1.653,1.653,0,0,1-1.106.444,1.762,1.762,0,0,1-1.142-.426,1.718,1.718,0,0,1-1.142.426,1.652,1.652,0,0,1-1.142-.444Zm1.214-6.253a2.224,2.224,0,0,1,2.1,0c2.057,1.088,7.105,3.489,9.144,4.269a67.367,67.367,0,0,0,8.473,2.32l-.036.027a2.193,2.193,0,0,1,1.078,3.689l-3.625,3.625v1.079a3.924,3.924,0,0,1-1.812,3.3l-1.876,1.214a23.127,23.127,0,0,1-25.656-.4l-1.169-.807a3.924,3.924,0,0,1-1.695-3.226V58.617L97.7,54.992A2.193,2.193,0,0,1,98.782,51.3a67.362,67.362,0,0,0,8.473-2.32c2.039-.779,7.087-3.181,9.144-4.269Z" transform="translate(0 0)" fill="#23702a" fill-rule="evenodd"/>
  </g>
</svg>
