<svg xmlns="http://www.w3.org/2000/svg" width="15" height="16" viewBox="0 0 15 16">
  <g id="Group_27" data-name="Group 27" transform="translate(-16)">
    <g id="Group_26" data-name="Group 26" transform="translate(16)">
      <g id="Group_25" data-name="Group 25" transform="translate(0)">
        <path id="Path_139" data-name="Path 139" d="M28.188,10.375a2.8,2.8,0,0,0-2.255,1.149L21.5,9.254a2.653,2.653,0,0,0-.083-1.836l4.639-2.792a2.8,2.8,0,1,0-.681-1.814,2.787,2.787,0,0,0,.2,1.011l-4.653,2.8a2.808,2.808,0,1,0,.177,3.476l4.418,2.262a2.774,2.774,0,0,0-.138.825,2.813,2.813,0,1,0,2.813-2.812Z" transform="translate(-16)" fill="#23702a"/>
      </g>
    </g>
  </g>
</svg>
